<?xml version="1.0" encoding="UTF-8" standalone="no"?>
<!DOCTYPE svg PUBLIC "-//W3C//DTD SVG 1.1//EN"
 "http://www.w3.org/Graphics/SVG/1.1/DTD/svg11.dtd">
<!-- Generated by graphviz version 2.26.3 (20100126.1600)
 -->
<!-- Title: controllers_diagram Pages: 1 -->
<svg width="656pt" height="719pt"
 viewBox="0.00 0.00 656.00 719.00" xmlns="http://www.w3.org/2000/svg" xmlns:xlink="http://www.w3.org/1999/xlink">
<g id="graph1" class="graph" transform="scale(1 1) rotate(0) translate(4 715)">
<title>controllers_diagram</title>
<polygon fill="white" stroke="white" points="-4,5 -4,-715 653,-715 653,5 -4,5"/>
<!-- _diagram_info -->
<g id="node1" class="node"><title>_diagram_info</title>
<text text-anchor="start" x="405" y="-122.3" font-family="Times Roman,serif" font-size="13.00">Controllers diagram</text>
<text text-anchor="start" x="405" y="-105.3" font-family="Times Roman,serif" font-size="13.00">Date: May 10 2015 &#45; 17:51</text>
<text text-anchor="start" x="405" y="-88.3" font-family="Times Roman,serif" font-size="13.00">Migration version: 20150510101931</text>
<text text-anchor="start" x="405" y="-71.3" font-family="Times Roman,serif" font-size="13.00">Generated by RailRoady 1.3.0</text>
<text text-anchor="start" x="405" y="-54.3" font-family="Times Roman,serif" font-size="13.00">http://railroady.prestonlee.com</text>
</g>
<!-- QueryUsersController -->
<g id="node2" class="node"><title>QueryUsersController</title>
<polyline fill="none" stroke="black" points="211,-155.5 354,-155.5 "/>
<path fill="none" stroke="black" d="M354,-155.5C360,-155.5 366,-161.5 366,-167.5"/>
<polyline fill="none" stroke="black" points="366,-167.5 366,-389.5 "/>
<path fill="none" stroke="black" d="M366,-389.5C366,-395.5 360,-401.5 354,-401.5"/>
<polyline fill="none" stroke="black" points="354,-401.5 211,-401.5 "/>
<path fill="none" stroke="black" d="M211,-401.5C205,-401.5 199,-395.5 199,-389.5"/>
<polyline fill="none" stroke="black" points="199,-389.5 199,-167.5 "/>
<path fill="none" stroke="black" d="M199,-167.5C199,-161.5 205,-155.5 211,-155.5"/>
<text text-anchor="middle" x="282.5" y="-384.9" font-family="Times Roman,serif" font-size="14.00">QueryUsersController</text>
<polyline fill="none" stroke="black" points="199,-375.5 366,-375.5 "/>
<text text-anchor="start" x="207" y="-358.9" font-family="Times Roman,serif" font-size="14.00">create</text>
<text text-anchor="start" x="207" y="-340.9" font-family="Times Roman,serif" font-size="14.00">destroy</text>
<text text-anchor="start" x="207" y="-322.9" font-family="Times Roman,serif" font-size="14.00">edit</text>
<text text-anchor="start" x="207" y="-304.9" font-family="Times Roman,serif" font-size="14.00">index</text>
<text text-anchor="start" x="207" y="-286.9" font-family="Times Roman,serif" font-size="14.00">new</text>
<text text-anchor="start" x="207" y="-268.9" font-family="Times Roman,serif" font-size="14.00">show</text>
<text text-anchor="start" x="207" y="-250.9" font-family="Times Roman,serif" font-size="14.00">update</text>
<polyline fill="none" stroke="black" points="199,-241.5 366,-241.5 "/>
<polyline fill="none" stroke="black" points="199,-217.5 366,-217.5 "/>
<text text-anchor="start" x="207" y="-200.9" font-family="Times Roman,serif" font-size="14.00">_layout</text>
<text text-anchor="start" x="207" y="-182.9" font-family="Times Roman,serif" font-size="14.00">query_user_params</text>
<text text-anchor="start" x="207" y="-164.9" font-family="Times Roman,serif" font-size="14.00">set_query_user</text>
</g>
<!-- ReservationsController -->
<g id="node3" class="node"><title>ReservationsController</title>
<polyline fill="none" stroke="black" points="409,-177.5 559,-177.5 "/>
<path fill="none" stroke="black" d="M559,-177.5C565,-177.5 571,-183.5 571,-189.5"/>
<polyline fill="none" stroke="black" points="571,-189.5 571,-411.5 "/>
<path fill="none" stroke="black" d="M571,-411.5C571,-417.5 565,-423.5 559,-423.5"/>
<polyline fill="none" stroke="black" points="559,-423.5 409,-423.5 "/>
<path fill="none" stroke="black" d="M409,-423.5C403,-423.5 397,-417.5 397,-411.5"/>
<polyline fill="none" stroke="black" points="397,-411.5 397,-189.5 "/>
<path fill="none" stroke="black" d="M397,-189.5C397,-183.5 403,-177.5 409,-177.5"/>
<text text-anchor="middle" x="484" y="-406.9" font-family="Times Roman,serif" font-size="14.00">ReservationsController</text>
<polyline fill="none" stroke="black" points="397,-397.5 571,-397.5 "/>
<text text-anchor="start" x="405" y="-380.9" font-family="Times Roman,serif" font-size="14.00">create</text>
<text text-anchor="start" x="405" y="-362.9" font-family="Times Roman,serif" font-size="14.00">destroy</text>
<text text-anchor="start" x="405" y="-344.9" font-family="Times Roman,serif" font-size="14.00">edit</text>
<text text-anchor="start" x="405" y="-326.9" font-family="Times Roman,serif" font-size="14.00">index</text>
<text text-anchor="start" x="405" y="-308.9" font-family="Times Roman,serif" font-size="14.00">new</text>
<text text-anchor="start" x="405" y="-290.9" font-family="Times Roman,serif" font-size="14.00">show</text>
<text text-anchor="start" x="405" y="-272.9" font-family="Times Roman,serif" font-size="14.00">update</text>
<polyline fill="none" stroke="black" points="397,-263.5 571,-263.5 "/>
<polyline fill="none" stroke="black" points="397,-239.5 571,-239.5 "/>
<text text-anchor="start" x="405" y="-222.9" font-family="Times Roman,serif" font-size="14.00">_layout</text>
<text text-anchor="start" x="405" y="-204.9" font-family="Times Roman,serif" font-size="14.00">reservation_params</text>
<text text-anchor="start" x="405" y="-186.9" font-family="Times Roman,serif" font-size="14.00">set_reservation</text>
</g>
<!-- ShareUsersController -->
<g id="node4" class="node"><title>ShareUsersController</title>
<polyline fill="none" stroke="black" points="211,-441.5 351,-441.5 "/>
<path fill="none" stroke="black" d="M351,-441.5C357,-441.5 363,-447.5 363,-453.5"/>
<polyline fill="none" stroke="black" points="363,-453.5 363,-675.5 "/>
<path fill="none" stroke="black" d="M363,-675.5C363,-681.5 357,-687.5 351,-687.5"/>
<polyline fill="none" stroke="black" points="351,-687.5 211,-687.5 "/>
<path fill="none" stroke="black" d="M211,-687.5C205,-687.5 199,-681.5 199,-675.5"/>
<polyline fill="none" stroke="black" points="199,-675.5 199,-453.5 "/>
<path fill="none" stroke="black" d="M199,-453.5C199,-447.5 205,-441.5 211,-441.5"/>
<text text-anchor="middle" x="281" y="-670.9" font-family="Times Roman,serif" font-size="14.00">ShareUsersController</text>
<polyline fill="none" stroke="black" points="199,-661.5 363,-661.5 "/>
<text text-anchor="start" x="207" y="-644.9" font-family="Times Roman,serif" font-size="14.00">create</text>
<text text-anchor="start" x="207" y="-626.9" font-family="Times Roman,serif" font-size="14.00">destroy</text>
<text text-anchor="start" x="207" y="-608.9" font-family="Times Roman,serif" font-size="14.00">edit</text>
<text text-anchor="start" x="207" y="-590.9" font-family="Times Roman,serif" font-size="14.00">index</text>
<text text-anchor="start" x="207" y="-572.9" font-family="Times Roman,serif" font-size="14.00">new</text>
<text text-anchor="start" x="207" y="-554.9" font-family="Times Roman,serif" font-size="14.00">show</text>
<text text-anchor="start" x="207" y="-536.9" font-family="Times Roman,serif" font-size="14.00">update</text>
<polyline fill="none" stroke="black" points="199,-527.5 363,-527.5 "/>
<polyline fill="none" stroke="black" points="199,-503.5 363,-503.5 "/>
<text text-anchor="start" x="207" y="-486.9" font-family="Times Roman,serif" font-size="14.00">_layout</text>
<text text-anchor="start" x="207" y="-468.9" font-family="Times Roman,serif" font-size="14.00">set_share_user</text>
<text text-anchor="start" x="207" y="-450.9" font-family="Times Roman,serif" font-size="14.00">share_user_params</text>
</g>
<!-- StopsController -->
<g id="node5" class="node"><title>StopsController</title>
<polyline fill="none" stroke="black" points="13,-1.5 113,-1.5 "/>
<path fill="none" stroke="black" d="M113,-1.5C119,-1.5 125,-7.5 125,-13.5"/>
<polyline fill="none" stroke="black" points="125,-13.5 125,-235.5 "/>
<path fill="none" stroke="black" d="M125,-235.5C125,-241.5 119,-247.5 113,-247.5"/>
<polyline fill="none" stroke="black" points="113,-247.5 13,-247.5 "/>
<path fill="none" stroke="black" d="M13,-247.5C7,-247.5 1,-241.5 1,-235.5"/>
<polyline fill="none" stroke="black" points="1,-235.5 1,-13.5 "/>
<path fill="none" stroke="black" d="M1,-13.5C1,-7.5 7,-1.5 13,-1.5"/>
<text text-anchor="middle" x="63" y="-230.9" font-family="Times Roman,serif" font-size="14.00">StopsController</text>
<polyline fill="none" stroke="black" points="1,-221.5 125,-221.5 "/>
<text text-anchor="start" x="9" y="-204.9" font-family="Times Roman,serif" font-size="14.00">create</text>
<text text-anchor="start" x="9" y="-186.9" font-family="Times Roman,serif" font-size="14.00">destroy</text>
<text text-anchor="start" x="9" y="-168.9" font-family="Times Roman,serif" font-size="14.00">edit</text>
<text text-anchor="start" x="9" y="-150.9" font-family="Times Roman,serif" font-size="14.00">index</text>
<text text-anchor="start" x="9" y="-132.9" font-family="Times Roman,serif" font-size="14.00">new</text>
<text text-anchor="start" x="9" y="-114.9" font-family="Times Roman,serif" font-size="14.00">show</text>
<text text-anchor="start" x="9" y="-96.9" font-family="Times Roman,serif" font-size="14.00">update</text>
<polyline fill="none" stroke="black" points="1,-87.5 125,-87.5 "/>
<polyline fill="none" stroke="black" points="1,-63.5 125,-63.5 "/>
<text text-anchor="start" x="9" y="-46.9" font-family="Times Roman,serif" font-size="14.00">_layout</text>
<text text-anchor="start" x="9" y="-28.9" font-family="Times Roman,serif" font-size="14.00">set_stop</text>
<text text-anchor="start" x="9" y="-10.9" font-family="Times Roman,serif" font-size="14.00">stop_params</text>
</g>
<!-- VehicleStopsController -->
<g id="node6" class="node"><title>VehicleStopsController</title>
<polyline fill="none" stroke="black" points="475,-463.5 624,-463.5 "/>
<path fill="none" stroke="black" d="M624,-463.5C630,-463.5 636,-469.5 636,-475.5"/>
<polyline fill="none" stroke="black" points="636,-475.5 636,-697.5 "/>
<path fill="none" stroke="black" d="M636,-697.5C636,-703.5 630,-709.5 624,-709.5"/>
<polyline fill="none" stroke="black" points="624,-709.5 475,-709.5 "/>
<path fill="none" stroke="black" d="M475,-709.5C469,-709.5 463,-703.5 463,-697.5"/>
<polyline fill="none" stroke="black" points="463,-697.5 463,-475.5 "/>
<path fill="none" stroke="black" d="M463,-475.5C463,-469.5 469,-463.5 475,-463.5"/>
<text text-anchor="middle" x="549.5" y="-692.9" font-family="Times Roman,serif" font-size="14.00">VehicleStopsController</text>
<polyline fill="none" stroke="black" points="463,-683.5 636,-683.5 "/>
<text text-anchor="start" x="471" y="-666.9" font-family="Times Roman,serif" font-size="14.00">create</text>
<text text-anchor="start" x="471" y="-648.9" font-family="Times Roman,serif" font-size="14.00">destroy</text>
<text text-anchor="start" x="471" y="-630.9" font-family="Times Roman,serif" font-size="14.00">edit</text>
<text text-anchor="start" x="471" y="-612.9" font-family="Times Roman,serif" font-size="14.00">index</text>
<text text-anchor="start" x="471" y="-594.9" font-family="Times Roman,serif" font-size="14.00">new</text>
<text text-anchor="start" x="471" y="-576.9" font-family="Times Roman,serif" font-size="14.00">show</text>
<text text-anchor="start" x="471" y="-558.9" font-family="Times Roman,serif" font-size="14.00">update</text>
<polyline fill="none" stroke="black" points="463,-549.5 636,-549.5 "/>
<polyline fill="none" stroke="black" points="463,-525.5 636,-525.5 "/>
<text text-anchor="start" x="471" y="-508.9" font-family="Times Roman,serif" font-size="14.00">_layout</text>
<text text-anchor="start" x="471" y="-490.9" font-family="Times Roman,serif" font-size="14.00">set_vehicle_stop</text>
<text text-anchor="start" x="471" y="-472.9" font-family="Times Roman,serif" font-size="14.00">vehicle_stop_params</text>
</g>
<!-- ApplicationController -->
<g id="node7" class="node"><title>ApplicationController</title>
<polyline fill="none" stroke="black" points="13,-573.5 150,-573.5 "/>
<path fill="none" stroke="black" d="M150,-573.5C156,-573.5 162,-579.5 162,-585.5"/>
<polyline fill="none" stroke="black" points="162,-585.5 162,-661.5 "/>
<path fill="none" stroke="black" d="M162,-661.5C162,-667.5 156,-673.5 150,-673.5"/>
<polyline fill="none" stroke="black" points="150,-673.5 13,-673.5 "/>
<path fill="none" stroke="black" d="M13,-673.5C7,-673.5 1,-667.5 1,-661.5"/>
<polyline fill="none" stroke="black" points="1,-661.5 1,-585.5 "/>
<path fill="none" stroke="black" d="M1,-585.5C1,-579.5 7,-573.5 13,-573.5"/>
<text text-anchor="middle" x="81.5" y="-656.9" font-family="Times Roman,serif" font-size="14.00">ApplicationController</text>
<polyline fill="none" stroke="black" points="1,-647.5 162,-647.5 "/>
<polyline fill="none" stroke="black" points="1,-623.5 162,-623.5 "/>
<polyline fill="none" stroke="black" points="1,-599.5 162,-599.5 "/>
<text text-anchor="start" x="9" y="-582.9" font-family="Times Roman,serif" font-size="14.00">_layout</text>
</g>
<!-- VehiclesController -->
<g id="node8" class="node"><title>VehiclesController</title>
<polyline fill="none" stroke="black" points="35,-287.5 152,-287.5 "/>
<path fill="none" stroke="black" d="M152,-287.5C158,-287.5 164,-293.5 164,-299.5"/>
<polyline fill="none" stroke="black" points="164,-299.5 164,-521.5 "/>
<path fill="none" stroke="black" d="M164,-521.5C164,-527.5 158,-533.5 152,-533.5"/>
<polyline fill="none" stroke="black" points="152,-533.5 35,-533.5 "/>
<path fill="none" stroke="black" d="M35,-533.5C29,-533.5 23,-527.5 23,-521.5"/>
<polyline fill="none" stroke="black" points="23,-521.5 23,-299.5 "/>
<path fill="none" stroke="black" d="M23,-299.5C23,-293.5 29,-287.5 35,-287.5"/>
<text text-anchor="middle" x="93.5" y="-516.9" font-family="Times Roman,serif" font-size="14.00">VehiclesController</text>
<polyline fill="none" stroke="black" points="23,-507.5 164,-507.5 "/>
<text text-anchor="start" x="31" y="-490.9" font-family="Times Roman,serif" font-size="14.00">create</text>
<text text-anchor="start" x="31" y="-472.9" font-family="Times Roman,serif" font-size="14.00">destroy</text>
<text text-anchor="start" x="31" y="-454.9" font-family="Times Roman,serif" font-size="14.00">edit</text>
<text text-anchor="start" x="31" y="-436.9" font-family="Times Roman,serif" font-size="14.00">index</text>
<text text-anchor="start" x="31" y="-418.9" font-family="Times Roman,serif" font-size="14.00">new</text>
<text text-anchor="start" x="31" y="-400.9" font-family="Times Roman,serif" font-size="14.00">show</text>
<text text-anchor="start" x="31" y="-382.9" font-family="Times Roman,serif" font-size="14.00">update</text>
<polyline fill="none" stroke="black" points="23,-373.5 164,-373.5 "/>
<polyline fill="none" stroke="black" points="23,-349.5 164,-349.5 "/>
<text text-anchor="start" x="31" y="-332.9" font-family="Times Roman,serif" font-size="14.00">_layout</text>
<text text-anchor="start" x="31" y="-314.9" font-family="Times Roman,serif" font-size="14.00">set_vehicle</text>
<text text-anchor="start" x="31" y="-296.9" font-family="Times Roman,serif" font-size="14.00">vehicle_params</text>
</g>
</g>
</svg>
