<?xml version="1.0" encoding="UTF-8" standalone="no"?>
<!DOCTYPE svg PUBLIC "-//W3C//DTD SVG 1.1//EN"
 "http://www.w3.org/Graphics/SVG/1.1/DTD/svg11.dtd">
<!-- Generated by graphviz version 2.26.3 (20100126.1600)
 -->
<!-- Title: controllers_diagram Pages: 1 -->
<svg width="656pt" height="719pt"
 viewBox="0.00 0.00 656.00 719.00" xmlns="http://www.w3.org/2000/svg" xmlns:xlink="http://www.w3.org/1999/xlink">
<g id="graph1" class="graph" transform="scale(1 1) rotate(0) translate(4 715)">
<title>controllers_diagram</title>
<polygon fill="white" stroke="white" points="-4,5 -4,-715 653,-715 653,5 -4,5"/>
<!-- _diagram_info -->
<g id="node1" class="node"><title>_diagram_info</title>
<text text-anchor="start" x="405" y="-78.3" font-family="Times Roman,serif" font-size="13.00">Controllers diagram</text>
<text text-anchor="start" x="405" y="-61.3" font-family="Times Roman,serif" font-size="13.00">Date: May 11 2015 &#45; 04:21</text>
<text text-anchor="start" x="405" y="-44.3" font-family="Times Roman,serif" font-size="13.00">Migration version: 20150511004422</text>
<text text-anchor="start" x="405" y="-27.3" font-family="Times Roman,serif" font-size="13.00">Generated by RailRoady 1.3.0</text>
<text text-anchor="start" x="405" y="-10.3" font-family="Times Roman,serif" font-size="13.00">http://railroady.prestonlee.com</text>
</g>
<!-- QueryUsersController -->
<g id="node2" class="node"><title>QueryUsersController</title>
<polyline fill="none" stroke="black" points="409,-133.5 552,-133.5 "/>
<path fill="none" stroke="black" d="M552,-133.5C558,-133.5 564,-139.5 564,-145.5"/>
<polyline fill="none" stroke="black" points="564,-145.5 564,-367.5 "/>
<path fill="none" stroke="black" d="M564,-367.5C564,-373.5 558,-379.5 552,-379.5"/>
<polyline fill="none" stroke="black" points="552,-379.5 409,-379.5 "/>
<path fill="none" stroke="black" d="M409,-379.5C403,-379.5 397,-373.5 397,-367.5"/>
<polyline fill="none" stroke="black" points="397,-367.5 397,-145.5 "/>
<path fill="none" stroke="black" d="M397,-145.5C397,-139.5 403,-133.5 409,-133.5"/>
<text text-anchor="middle" x="480.5" y="-362.9" font-family="Times Roman,serif" font-size="14.00">QueryUsersController</text>
<polyline fill="none" stroke="black" points="397,-353.5 564,-353.5 "/>
<text text-anchor="start" x="405" y="-336.9" font-family="Times Roman,serif" font-size="14.00">create</text>
<text text-anchor="start" x="405" y="-318.9" font-family="Times Roman,serif" font-size="14.00">destroy</text>
<text text-anchor="start" x="405" y="-300.9" font-family="Times Roman,serif" font-size="14.00">edit</text>
<text text-anchor="start" x="405" y="-282.9" font-family="Times Roman,serif" font-size="14.00">index</text>
<text text-anchor="start" x="405" y="-264.9" font-family="Times Roman,serif" font-size="14.00">new</text>
<text text-anchor="start" x="405" y="-246.9" font-family="Times Roman,serif" font-size="14.00">show</text>
<text text-anchor="start" x="405" y="-228.9" font-family="Times Roman,serif" font-size="14.00">update</text>
<polyline fill="none" stroke="black" points="397,-219.5 564,-219.5 "/>
<polyline fill="none" stroke="black" points="397,-195.5 564,-195.5 "/>
<text text-anchor="start" x="405" y="-178.9" font-family="Times Roman,serif" font-size="14.00">_layout</text>
<text text-anchor="start" x="405" y="-160.9" font-family="Times Roman,serif" font-size="14.00">query_user_params</text>
<text text-anchor="start" x="405" y="-142.9" font-family="Times Roman,serif" font-size="14.00">set_query_user</text>
</g>
<!-- ReservationsController -->
<g id="node3" class="node"><title>ReservationsController</title>
<polyline fill="none" stroke="black" points="475,-419.5 625,-419.5 "/>
<path fill="none" stroke="black" d="M625,-419.5C631,-419.5 637,-425.5 637,-431.5"/>
<polyline fill="none" stroke="black" points="637,-431.5 637,-653.5 "/>
<path fill="none" stroke="black" d="M637,-653.5C637,-659.5 631,-665.5 625,-665.5"/>
<polyline fill="none" stroke="black" points="625,-665.5 475,-665.5 "/>
<path fill="none" stroke="black" d="M475,-665.5C469,-665.5 463,-659.5 463,-653.5"/>
<polyline fill="none" stroke="black" points="463,-653.5 463,-431.5 "/>
<path fill="none" stroke="black" d="M463,-431.5C463,-425.5 469,-419.5 475,-419.5"/>
<text text-anchor="middle" x="550" y="-648.9" font-family="Times Roman,serif" font-size="14.00">ReservationsController</text>
<polyline fill="none" stroke="black" points="463,-639.5 637,-639.5 "/>
<text text-anchor="start" x="471" y="-622.9" font-family="Times Roman,serif" font-size="14.00">create</text>
<text text-anchor="start" x="471" y="-604.9" font-family="Times Roman,serif" font-size="14.00">destroy</text>
<text text-anchor="start" x="471" y="-586.9" font-family="Times Roman,serif" font-size="14.00">edit</text>
<text text-anchor="start" x="471" y="-568.9" font-family="Times Roman,serif" font-size="14.00">index</text>
<text text-anchor="start" x="471" y="-550.9" font-family="Times Roman,serif" font-size="14.00">new</text>
<text text-anchor="start" x="471" y="-532.9" font-family="Times Roman,serif" font-size="14.00">show</text>
<text text-anchor="start" x="471" y="-514.9" font-family="Times Roman,serif" font-size="14.00">update</text>
<polyline fill="none" stroke="black" points="463,-505.5 637,-505.5 "/>
<polyline fill="none" stroke="black" points="463,-481.5 637,-481.5 "/>
<text text-anchor="start" x="471" y="-464.9" font-family="Times Roman,serif" font-size="14.00">_layout</text>
<text text-anchor="start" x="471" y="-446.9" font-family="Times Roman,serif" font-size="14.00">reservation_params</text>
<text text-anchor="start" x="471" y="-428.9" font-family="Times Roman,serif" font-size="14.00">set_reservation</text>
</g>
<!-- ShareUsersController -->
<g id="node4" class="node"><title>ShareUsersController</title>
<polyline fill="none" stroke="black" points="211,-89.5 351,-89.5 "/>
<path fill="none" stroke="black" d="M351,-89.5C357,-89.5 363,-95.5 363,-101.5"/>
<polyline fill="none" stroke="black" points="363,-101.5 363,-377.5 "/>
<path fill="none" stroke="black" d="M363,-377.5C363,-383.5 357,-389.5 351,-389.5"/>
<polyline fill="none" stroke="black" points="351,-389.5 211,-389.5 "/>
<path fill="none" stroke="black" d="M211,-389.5C205,-389.5 199,-383.5 199,-377.5"/>
<polyline fill="none" stroke="black" points="199,-377.5 199,-101.5 "/>
<path fill="none" stroke="black" d="M199,-101.5C199,-95.5 205,-89.5 211,-89.5"/>
<text text-anchor="middle" x="281" y="-372.9" font-family="Times Roman,serif" font-size="14.00">ShareUsersController</text>
<polyline fill="none" stroke="black" points="199,-363.5 363,-363.5 "/>
<text text-anchor="start" x="207" y="-346.9" font-family="Times Roman,serif" font-size="14.00">create</text>
<text text-anchor="start" x="207" y="-328.9" font-family="Times Roman,serif" font-size="14.00">destroy</text>
<text text-anchor="start" x="207" y="-310.9" font-family="Times Roman,serif" font-size="14.00">edit</text>
<text text-anchor="start" x="207" y="-292.9" font-family="Times Roman,serif" font-size="14.00">index</text>
<text text-anchor="start" x="207" y="-274.9" font-family="Times Roman,serif" font-size="14.00">lets_share</text>
<text text-anchor="start" x="207" y="-256.9" font-family="Times Roman,serif" font-size="14.00">new</text>
<text text-anchor="start" x="207" y="-238.9" font-family="Times Roman,serif" font-size="14.00">real_coords</text>
<text text-anchor="start" x="207" y="-220.9" font-family="Times Roman,serif" font-size="14.00">show</text>
<text text-anchor="start" x="207" y="-202.9" font-family="Times Roman,serif" font-size="14.00">tracking</text>
<text text-anchor="start" x="207" y="-184.9" font-family="Times Roman,serif" font-size="14.00">update</text>
<polyline fill="none" stroke="black" points="199,-175.5 363,-175.5 "/>
<polyline fill="none" stroke="black" points="199,-151.5 363,-151.5 "/>
<text text-anchor="start" x="207" y="-134.9" font-family="Times Roman,serif" font-size="14.00">_layout</text>
<text text-anchor="start" x="207" y="-116.9" font-family="Times Roman,serif" font-size="14.00">set_share_user</text>
<text text-anchor="start" x="207" y="-98.9" font-family="Times Roman,serif" font-size="14.00">share_user_params</text>
</g>
<!-- StopsController -->
<g id="node5" class="node"><title>StopsController</title>
<polyline fill="none" stroke="black" points="35,-177.5 135,-177.5 "/>
<path fill="none" stroke="black" d="M135,-177.5C141,-177.5 147,-183.5 147,-189.5"/>
<polyline fill="none" stroke="black" points="147,-189.5 147,-411.5 "/>
<path fill="none" stroke="black" d="M147,-411.5C147,-417.5 141,-423.5 135,-423.5"/>
<polyline fill="none" stroke="black" points="135,-423.5 35,-423.5 "/>
<path fill="none" stroke="black" d="M35,-423.5C29,-423.5 23,-417.5 23,-411.5"/>
<polyline fill="none" stroke="black" points="23,-411.5 23,-189.5 "/>
<path fill="none" stroke="black" d="M23,-189.5C23,-183.5 29,-177.5 35,-177.5"/>
<text text-anchor="middle" x="85" y="-406.9" font-family="Times Roman,serif" font-size="14.00">StopsController</text>
<polyline fill="none" stroke="black" points="23,-397.5 147,-397.5 "/>
<text text-anchor="start" x="31" y="-380.9" font-family="Times Roman,serif" font-size="14.00">create</text>
<text text-anchor="start" x="31" y="-362.9" font-family="Times Roman,serif" font-size="14.00">destroy</text>
<text text-anchor="start" x="31" y="-344.9" font-family="Times Roman,serif" font-size="14.00">edit</text>
<text text-anchor="start" x="31" y="-326.9" font-family="Times Roman,serif" font-size="14.00">index</text>
<text text-anchor="start" x="31" y="-308.9" font-family="Times Roman,serif" font-size="14.00">new</text>
<text text-anchor="start" x="31" y="-290.9" font-family="Times Roman,serif" font-size="14.00">show</text>
<text text-anchor="start" x="31" y="-272.9" font-family="Times Roman,serif" font-size="14.00">update</text>
<polyline fill="none" stroke="black" points="23,-263.5 147,-263.5 "/>
<polyline fill="none" stroke="black" points="23,-239.5 147,-239.5 "/>
<text text-anchor="start" x="31" y="-222.9" font-family="Times Roman,serif" font-size="14.00">_layout</text>
<text text-anchor="start" x="31" y="-204.9" font-family="Times Roman,serif" font-size="14.00">set_stop</text>
<text text-anchor="start" x="31" y="-186.9" font-family="Times Roman,serif" font-size="14.00">stop_params</text>
</g>
<!-- VehicleStopsController -->
<g id="node6" class="node"><title>VehicleStopsController</title>
<polyline fill="none" stroke="black" points="255,-441.5 404,-441.5 "/>
<path fill="none" stroke="black" d="M404,-441.5C410,-441.5 416,-447.5 416,-453.5"/>
<polyline fill="none" stroke="black" points="416,-453.5 416,-693.5 "/>
<path fill="none" stroke="black" d="M416,-693.5C416,-699.5 410,-705.5 404,-705.5"/>
<polyline fill="none" stroke="black" points="404,-705.5 255,-705.5 "/>
<path fill="none" stroke="black" d="M255,-705.5C249,-705.5 243,-699.5 243,-693.5"/>
<polyline fill="none" stroke="black" points="243,-693.5 243,-453.5 "/>
<path fill="none" stroke="black" d="M243,-453.5C243,-447.5 249,-441.5 255,-441.5"/>
<text text-anchor="middle" x="329.5" y="-688.9" font-family="Times Roman,serif" font-size="14.00">VehicleStopsController</text>
<polyline fill="none" stroke="black" points="243,-679.5 416,-679.5 "/>
<text text-anchor="start" x="251" y="-662.9" font-family="Times Roman,serif" font-size="14.00">create</text>
<text text-anchor="start" x="251" y="-644.9" font-family="Times Roman,serif" font-size="14.00">create_vehicle</text>
<text text-anchor="start" x="251" y="-626.9" font-family="Times Roman,serif" font-size="14.00">destroy</text>
<text text-anchor="start" x="251" y="-608.9" font-family="Times Roman,serif" font-size="14.00">edit</text>
<text text-anchor="start" x="251" y="-590.9" font-family="Times Roman,serif" font-size="14.00">index</text>
<text text-anchor="start" x="251" y="-572.9" font-family="Times Roman,serif" font-size="14.00">new</text>
<text text-anchor="start" x="251" y="-554.9" font-family="Times Roman,serif" font-size="14.00">show</text>
<text text-anchor="start" x="251" y="-536.9" font-family="Times Roman,serif" font-size="14.00">update</text>
<polyline fill="none" stroke="black" points="243,-527.5 416,-527.5 "/>
<polyline fill="none" stroke="black" points="243,-503.5 416,-503.5 "/>
<text text-anchor="start" x="251" y="-486.9" font-family="Times Roman,serif" font-size="14.00">_layout</text>
<text text-anchor="start" x="251" y="-468.9" font-family="Times Roman,serif" font-size="14.00">set_vehicle_stop</text>
<text text-anchor="start" x="251" y="-450.9" font-family="Times Roman,serif" font-size="14.00">vehicle_stop_params</text>
</g>
<!-- ApplicationController -->
<g id="node7" class="node"><title>ApplicationController</title>
<polyline fill="none" stroke="black" points="13,-23.5 150,-23.5 "/>
<path fill="none" stroke="black" d="M150,-23.5C156,-23.5 162,-29.5 162,-35.5"/>
<polyline fill="none" stroke="black" points="162,-35.5 162,-111.5 "/>
<path fill="none" stroke="black" d="M162,-111.5C162,-117.5 156,-123.5 150,-123.5"/>
<polyline fill="none" stroke="black" points="150,-123.5 13,-123.5 "/>
<path fill="none" stroke="black" d="M13,-123.5C7,-123.5 1,-117.5 1,-111.5"/>
<polyline fill="none" stroke="black" points="1,-111.5 1,-35.5 "/>
<path fill="none" stroke="black" d="M1,-35.5C1,-29.5 7,-23.5 13,-23.5"/>
<text text-anchor="middle" x="81.5" y="-106.9" font-family="Times Roman,serif" font-size="14.00">ApplicationController</text>
<polyline fill="none" stroke="black" points="1,-97.5 162,-97.5 "/>
<polyline fill="none" stroke="black" points="1,-73.5 162,-73.5 "/>
<polyline fill="none" stroke="black" points="1,-49.5 162,-49.5 "/>
<text text-anchor="start" x="9" y="-32.9" font-family="Times Roman,serif" font-size="14.00">_layout</text>
</g>
<!-- VehiclesController -->
<g id="node8" class="node"><title>VehiclesController</title>
<polyline fill="none" stroke="black" points="79,-463.5 196,-463.5 "/>
<path fill="none" stroke="black" d="M196,-463.5C202,-463.5 208,-469.5 208,-475.5"/>
<polyline fill="none" stroke="black" points="208,-475.5 208,-697.5 "/>
<path fill="none" stroke="black" d="M208,-697.5C208,-703.5 202,-709.5 196,-709.5"/>
<polyline fill="none" stroke="black" points="196,-709.5 79,-709.5 "/>
<path fill="none" stroke="black" d="M79,-709.5C73,-709.5 67,-703.5 67,-697.5"/>
<polyline fill="none" stroke="black" points="67,-697.5 67,-475.5 "/>
<path fill="none" stroke="black" d="M67,-475.5C67,-469.5 73,-463.5 79,-463.5"/>
<text text-anchor="middle" x="137.5" y="-692.9" font-family="Times Roman,serif" font-size="14.00">VehiclesController</text>
<polyline fill="none" stroke="black" points="67,-683.5 208,-683.5 "/>
<text text-anchor="start" x="75" y="-666.9" font-family="Times Roman,serif" font-size="14.00">create</text>
<text text-anchor="start" x="75" y="-648.9" font-family="Times Roman,serif" font-size="14.00">destroy</text>
<text text-anchor="start" x="75" y="-630.9" font-family="Times Roman,serif" font-size="14.00">edit</text>
<text text-anchor="start" x="75" y="-612.9" font-family="Times Roman,serif" font-size="14.00">index</text>
<text text-anchor="start" x="75" y="-594.9" font-family="Times Roman,serif" font-size="14.00">new</text>
<text text-anchor="start" x="75" y="-576.9" font-family="Times Roman,serif" font-size="14.00">show</text>
<text text-anchor="start" x="75" y="-558.9" font-family="Times Roman,serif" font-size="14.00">update</text>
<polyline fill="none" stroke="black" points="67,-549.5 208,-549.5 "/>
<polyline fill="none" stroke="black" points="67,-525.5 208,-525.5 "/>
<text text-anchor="start" x="75" y="-508.9" font-family="Times Roman,serif" font-size="14.00">_layout</text>
<text text-anchor="start" x="75" y="-490.9" font-family="Times Roman,serif" font-size="14.00">set_vehicle</text>
<text text-anchor="start" x="75" y="-472.9" font-family="Times Roman,serif" font-size="14.00">vehicle_params</text>
</g>
</g>
</svg>
