<?xml version="1.0" encoding="UTF-8" standalone="no"?>
<!DOCTYPE svg PUBLIC "-//W3C//DTD SVG 1.1//EN"
 "http://www.w3.org/Graphics/SVG/1.1/DTD/svg11.dtd">
<!-- Generated by graphviz version 2.26.3 (20100126.1600)
 -->
<!-- Title: controllers_diagram Pages: 1 -->
<svg width="674pt" height="735pt"
 viewBox="0.00 0.00 674.00 735.00" xmlns="http://www.w3.org/2000/svg" xmlns:xlink="http://www.w3.org/1999/xlink">
<g id="graph1" class="graph" transform="scale(1 1) rotate(0) translate(4 731)">
<title>controllers_diagram</title>
<polygon fill="white" stroke="white" points="-4,5 -4,-731 671,-731 671,5 -4,5"/>
<!-- _diagram_info -->
<g id="node1" class="node"><title>_diagram_info</title>
<text text-anchor="start" x="423" y="-78.3" font-family="Times Roman,serif" font-size="13.00">Controllers diagram</text>
<text text-anchor="start" x="423" y="-61.3" font-family="Times Roman,serif" font-size="13.00">Date: May 12 2015 &#45; 11:40</text>
<text text-anchor="start" x="423" y="-44.3" font-family="Times Roman,serif" font-size="13.00">Migration version: 20150512020603</text>
<text text-anchor="start" x="423" y="-27.3" font-family="Times Roman,serif" font-size="13.00">Generated by RailRoady 1.3.0</text>
<text text-anchor="start" x="423" y="-10.3" font-family="Times Roman,serif" font-size="13.00">http://railroady.prestonlee.com</text>
</g>
<!-- QueryUsersController -->
<g id="node2" class="node"><title>QueryUsersController</title>
<polyline fill="none" stroke="black" points="496,-438.5 639,-438.5 "/>
<path fill="none" stroke="black" d="M639,-438.5C645,-438.5 651,-444.5 651,-450.5"/>
<polyline fill="none" stroke="black" points="651,-450.5 651,-672.5 "/>
<path fill="none" stroke="black" d="M651,-672.5C651,-678.5 645,-684.5 639,-684.5"/>
<polyline fill="none" stroke="black" points="639,-684.5 496,-684.5 "/>
<path fill="none" stroke="black" d="M496,-684.5C490,-684.5 484,-678.5 484,-672.5"/>
<polyline fill="none" stroke="black" points="484,-672.5 484,-450.5 "/>
<path fill="none" stroke="black" d="M484,-450.5C484,-444.5 490,-438.5 496,-438.5"/>
<text text-anchor="middle" x="567.5" y="-667.9" font-family="Times Roman,serif" font-size="14.00">QueryUsersController</text>
<polyline fill="none" stroke="black" points="484,-658.5 651,-658.5 "/>
<text text-anchor="start" x="492" y="-641.9" font-family="Times Roman,serif" font-size="14.00">create</text>
<text text-anchor="start" x="492" y="-623.9" font-family="Times Roman,serif" font-size="14.00">destroy</text>
<text text-anchor="start" x="492" y="-605.9" font-family="Times Roman,serif" font-size="14.00">edit</text>
<text text-anchor="start" x="492" y="-587.9" font-family="Times Roman,serif" font-size="14.00">index</text>
<text text-anchor="start" x="492" y="-569.9" font-family="Times Roman,serif" font-size="14.00">new</text>
<text text-anchor="start" x="492" y="-551.9" font-family="Times Roman,serif" font-size="14.00">show</text>
<text text-anchor="start" x="492" y="-533.9" font-family="Times Roman,serif" font-size="14.00">update</text>
<polyline fill="none" stroke="black" points="484,-524.5 651,-524.5 "/>
<polyline fill="none" stroke="black" points="484,-500.5 651,-500.5 "/>
<text text-anchor="start" x="492" y="-483.9" font-family="Times Roman,serif" font-size="14.00">_layout</text>
<text text-anchor="start" x="492" y="-465.9" font-family="Times Roman,serif" font-size="14.00">query_user_params</text>
<text text-anchor="start" x="492" y="-447.9" font-family="Times Roman,serif" font-size="14.00">set_query_user</text>
</g>
<!-- ReservationsController -->
<g id="node3" class="node"><title>ReservationsController</title>
<polyline fill="none" stroke="black" points="289,-461.5 439,-461.5 "/>
<path fill="none" stroke="black" d="M439,-461.5C445,-461.5 451,-467.5 451,-473.5"/>
<polyline fill="none" stroke="black" points="451,-473.5 451,-695.5 "/>
<path fill="none" stroke="black" d="M451,-695.5C451,-701.5 445,-707.5 439,-707.5"/>
<polyline fill="none" stroke="black" points="439,-707.5 289,-707.5 "/>
<path fill="none" stroke="black" d="M289,-707.5C283,-707.5 277,-701.5 277,-695.5"/>
<polyline fill="none" stroke="black" points="277,-695.5 277,-473.5 "/>
<path fill="none" stroke="black" d="M277,-473.5C277,-467.5 283,-461.5 289,-461.5"/>
<text text-anchor="middle" x="364" y="-690.9" font-family="Times Roman,serif" font-size="14.00">ReservationsController</text>
<polyline fill="none" stroke="black" points="277,-681.5 451,-681.5 "/>
<text text-anchor="start" x="285" y="-664.9" font-family="Times Roman,serif" font-size="14.00">create</text>
<text text-anchor="start" x="285" y="-646.9" font-family="Times Roman,serif" font-size="14.00">destroy</text>
<text text-anchor="start" x="285" y="-628.9" font-family="Times Roman,serif" font-size="14.00">edit</text>
<text text-anchor="start" x="285" y="-610.9" font-family="Times Roman,serif" font-size="14.00">index</text>
<text text-anchor="start" x="285" y="-592.9" font-family="Times Roman,serif" font-size="14.00">new</text>
<text text-anchor="start" x="285" y="-574.9" font-family="Times Roman,serif" font-size="14.00">show</text>
<text text-anchor="start" x="285" y="-556.9" font-family="Times Roman,serif" font-size="14.00">update</text>
<polyline fill="none" stroke="black" points="277,-547.5 451,-547.5 "/>
<polyline fill="none" stroke="black" points="277,-523.5 451,-523.5 "/>
<text text-anchor="start" x="285" y="-506.9" font-family="Times Roman,serif" font-size="14.00">_layout</text>
<text text-anchor="start" x="285" y="-488.9" font-family="Times Roman,serif" font-size="14.00">reservation_params</text>
<text text-anchor="start" x="285" y="-470.9" font-family="Times Roman,serif" font-size="14.00">set_reservation</text>
</g>
<!-- ShareUsersController -->
<g id="node4" class="node"><title>ShareUsersController</title>
<polyline fill="none" stroke="black" points="220,-93.5 360,-93.5 "/>
<path fill="none" stroke="black" d="M360,-93.5C366,-93.5 372,-99.5 372,-105.5"/>
<polyline fill="none" stroke="black" points="372,-105.5 372,-399.5 "/>
<path fill="none" stroke="black" d="M372,-399.5C372,-405.5 366,-411.5 360,-411.5"/>
<polyline fill="none" stroke="black" points="360,-411.5 220,-411.5 "/>
<path fill="none" stroke="black" d="M220,-411.5C214,-411.5 208,-405.5 208,-399.5"/>
<polyline fill="none" stroke="black" points="208,-399.5 208,-105.5 "/>
<path fill="none" stroke="black" d="M208,-105.5C208,-99.5 214,-93.5 220,-93.5"/>
<text text-anchor="middle" x="290" y="-394.9" font-family="Times Roman,serif" font-size="14.00">ShareUsersController</text>
<polyline fill="none" stroke="black" points="208,-385.5 372,-385.5 "/>
<text text-anchor="start" x="216" y="-368.9" font-family="Times Roman,serif" font-size="14.00">create</text>
<text text-anchor="start" x="216" y="-350.9" font-family="Times Roman,serif" font-size="14.00">destroy</text>
<text text-anchor="start" x="216" y="-332.9" font-family="Times Roman,serif" font-size="14.00">edit</text>
<text text-anchor="start" x="216" y="-314.9" font-family="Times Roman,serif" font-size="14.00">index</text>
<text text-anchor="start" x="216" y="-296.9" font-family="Times Roman,serif" font-size="14.00">lets_share</text>
<text text-anchor="start" x="216" y="-278.9" font-family="Times Roman,serif" font-size="14.00">new</text>
<text text-anchor="start" x="216" y="-260.9" font-family="Times Roman,serif" font-size="14.00">real_coords</text>
<text text-anchor="start" x="216" y="-242.9" font-family="Times Roman,serif" font-size="14.00">remove</text>
<text text-anchor="start" x="216" y="-224.9" font-family="Times Roman,serif" font-size="14.00">show</text>
<text text-anchor="start" x="216" y="-206.9" font-family="Times Roman,serif" font-size="14.00">tracking</text>
<text text-anchor="start" x="216" y="-188.9" font-family="Times Roman,serif" font-size="14.00">update</text>
<polyline fill="none" stroke="black" points="208,-179.5 372,-179.5 "/>
<polyline fill="none" stroke="black" points="208,-155.5 372,-155.5 "/>
<text text-anchor="start" x="216" y="-138.9" font-family="Times Roman,serif" font-size="14.00">_layout</text>
<text text-anchor="start" x="216" y="-120.9" font-family="Times Roman,serif" font-size="14.00">set_share_user</text>
<text text-anchor="start" x="216" y="-102.9" font-family="Times Roman,serif" font-size="14.00">share_user_params</text>
</g>
<!-- StopsController -->
<g id="node5" class="node"><title>StopsController</title>
<polyline fill="none" stroke="black" points="128,-461.5 228,-461.5 "/>
<path fill="none" stroke="black" d="M228,-461.5C234,-461.5 240,-467.5 240,-473.5"/>
<polyline fill="none" stroke="black" points="240,-473.5 240,-713.5 "/>
<path fill="none" stroke="black" d="M240,-713.5C240,-719.5 234,-725.5 228,-725.5"/>
<polyline fill="none" stroke="black" points="228,-725.5 128,-725.5 "/>
<path fill="none" stroke="black" d="M128,-725.5C122,-725.5 116,-719.5 116,-713.5"/>
<polyline fill="none" stroke="black" points="116,-713.5 116,-473.5 "/>
<path fill="none" stroke="black" d="M116,-473.5C116,-467.5 122,-461.5 128,-461.5"/>
<text text-anchor="middle" x="178" y="-708.9" font-family="Times Roman,serif" font-size="14.00">StopsController</text>
<polyline fill="none" stroke="black" points="116,-699.5 240,-699.5 "/>
<text text-anchor="start" x="124" y="-682.9" font-family="Times Roman,serif" font-size="14.00">create</text>
<text text-anchor="start" x="124" y="-664.9" font-family="Times Roman,serif" font-size="14.00">destroy</text>
<text text-anchor="start" x="124" y="-646.9" font-family="Times Roman,serif" font-size="14.00">edit</text>
<text text-anchor="start" x="124" y="-628.9" font-family="Times Roman,serif" font-size="14.00">index</text>
<text text-anchor="start" x="124" y="-610.9" font-family="Times Roman,serif" font-size="14.00">near_stops</text>
<text text-anchor="start" x="124" y="-592.9" font-family="Times Roman,serif" font-size="14.00">new</text>
<text text-anchor="start" x="124" y="-574.9" font-family="Times Roman,serif" font-size="14.00">show</text>
<text text-anchor="start" x="124" y="-556.9" font-family="Times Roman,serif" font-size="14.00">update</text>
<polyline fill="none" stroke="black" points="116,-547.5 240,-547.5 "/>
<polyline fill="none" stroke="black" points="116,-523.5 240,-523.5 "/>
<text text-anchor="start" x="124" y="-506.9" font-family="Times Roman,serif" font-size="14.00">_layout</text>
<text text-anchor="start" x="124" y="-488.9" font-family="Times Roman,serif" font-size="14.00">set_stop</text>
<text text-anchor="start" x="124" y="-470.9" font-family="Times Roman,serif" font-size="14.00">stop_params</text>
</g>
<!-- VehicleStopsController -->
<g id="node6" class="node"><title>VehicleStopsController</title>
<polyline fill="none" stroke="black" points="427,-139.5 576,-139.5 "/>
<path fill="none" stroke="black" d="M576,-139.5C582,-139.5 588,-145.5 588,-151.5"/>
<polyline fill="none" stroke="black" points="588,-151.5 588,-391.5 "/>
<path fill="none" stroke="black" d="M588,-391.5C588,-397.5 582,-403.5 576,-403.5"/>
<polyline fill="none" stroke="black" points="576,-403.5 427,-403.5 "/>
<path fill="none" stroke="black" d="M427,-403.5C421,-403.5 415,-397.5 415,-391.5"/>
<polyline fill="none" stroke="black" points="415,-391.5 415,-151.5 "/>
<path fill="none" stroke="black" d="M415,-151.5C415,-145.5 421,-139.5 427,-139.5"/>
<text text-anchor="middle" x="501.5" y="-386.9" font-family="Times Roman,serif" font-size="14.00">VehicleStopsController</text>
<polyline fill="none" stroke="black" points="415,-377.5 588,-377.5 "/>
<text text-anchor="start" x="423" y="-360.9" font-family="Times Roman,serif" font-size="14.00">create</text>
<text text-anchor="start" x="423" y="-342.9" font-family="Times Roman,serif" font-size="14.00">create_vehicle</text>
<text text-anchor="start" x="423" y="-324.9" font-family="Times Roman,serif" font-size="14.00">destroy</text>
<text text-anchor="start" x="423" y="-306.9" font-family="Times Roman,serif" font-size="14.00">edit</text>
<text text-anchor="start" x="423" y="-288.9" font-family="Times Roman,serif" font-size="14.00">index</text>
<text text-anchor="start" x="423" y="-270.9" font-family="Times Roman,serif" font-size="14.00">new</text>
<text text-anchor="start" x="423" y="-252.9" font-family="Times Roman,serif" font-size="14.00">show</text>
<text text-anchor="start" x="423" y="-234.9" font-family="Times Roman,serif" font-size="14.00">update</text>
<polyline fill="none" stroke="black" points="415,-225.5 588,-225.5 "/>
<polyline fill="none" stroke="black" points="415,-201.5 588,-201.5 "/>
<text text-anchor="start" x="423" y="-184.9" font-family="Times Roman,serif" font-size="14.00">_layout</text>
<text text-anchor="start" x="423" y="-166.9" font-family="Times Roman,serif" font-size="14.00">set_vehicle_stop</text>
<text text-anchor="start" x="423" y="-148.9" font-family="Times Roman,serif" font-size="14.00">vehicle_stop_params</text>
</g>
<!-- ApplicationController -->
<g id="node7" class="node"><title>ApplicationController</title>
<polyline fill="none" stroke="black" points="13,-24.5 150,-24.5 "/>
<path fill="none" stroke="black" d="M150,-24.5C156,-24.5 162,-30.5 162,-36.5"/>
<polyline fill="none" stroke="black" points="162,-36.5 162,-112.5 "/>
<path fill="none" stroke="black" d="M162,-112.5C162,-118.5 156,-124.5 150,-124.5"/>
<polyline fill="none" stroke="black" points="150,-124.5 13,-124.5 "/>
<path fill="none" stroke="black" d="M13,-124.5C7,-124.5 1,-118.5 1,-112.5"/>
<polyline fill="none" stroke="black" points="1,-112.5 1,-36.5 "/>
<path fill="none" stroke="black" d="M1,-36.5C1,-30.5 7,-24.5 13,-24.5"/>
<text text-anchor="middle" x="81.5" y="-107.9" font-family="Times Roman,serif" font-size="14.00">ApplicationController</text>
<polyline fill="none" stroke="black" points="1,-98.5 162,-98.5 "/>
<polyline fill="none" stroke="black" points="1,-74.5 162,-74.5 "/>
<polyline fill="none" stroke="black" points="1,-50.5 162,-50.5 "/>
<text text-anchor="start" x="9" y="-33.9" font-family="Times Roman,serif" font-size="14.00">_layout</text>
</g>
<!-- VehiclesController -->
<g id="node8" class="node"><title>VehiclesController</title>
<polyline fill="none" stroke="black" points="36,-162.5 153,-162.5 "/>
<path fill="none" stroke="black" d="M153,-162.5C159,-162.5 165,-168.5 165,-174.5"/>
<polyline fill="none" stroke="black" points="165,-174.5 165,-414.5 "/>
<path fill="none" stroke="black" d="M165,-414.5C165,-420.5 159,-426.5 153,-426.5"/>
<polyline fill="none" stroke="black" points="153,-426.5 36,-426.5 "/>
<path fill="none" stroke="black" d="M36,-426.5C30,-426.5 24,-420.5 24,-414.5"/>
<polyline fill="none" stroke="black" points="24,-414.5 24,-174.5 "/>
<path fill="none" stroke="black" d="M24,-174.5C24,-168.5 30,-162.5 36,-162.5"/>
<text text-anchor="middle" x="94.5" y="-409.9" font-family="Times Roman,serif" font-size="14.00">VehiclesController</text>
<polyline fill="none" stroke="black" points="24,-400.5 165,-400.5 "/>
<text text-anchor="start" x="32" y="-383.9" font-family="Times Roman,serif" font-size="14.00">create</text>
<text text-anchor="start" x="32" y="-365.9" font-family="Times Roman,serif" font-size="14.00">destroy</text>
<text text-anchor="start" x="32" y="-347.9" font-family="Times Roman,serif" font-size="14.00">edit</text>
<text text-anchor="start" x="32" y="-329.9" font-family="Times Roman,serif" font-size="14.00">index</text>
<text text-anchor="start" x="32" y="-311.9" font-family="Times Roman,serif" font-size="14.00">new</text>
<text text-anchor="start" x="32" y="-293.9" font-family="Times Roman,serif" font-size="14.00">search_by_name</text>
<text text-anchor="start" x="32" y="-275.9" font-family="Times Roman,serif" font-size="14.00">show</text>
<text text-anchor="start" x="32" y="-257.9" font-family="Times Roman,serif" font-size="14.00">update</text>
<polyline fill="none" stroke="black" points="24,-248.5 165,-248.5 "/>
<polyline fill="none" stroke="black" points="24,-224.5 165,-224.5 "/>
<text text-anchor="start" x="32" y="-207.9" font-family="Times Roman,serif" font-size="14.00">_layout</text>
<text text-anchor="start" x="32" y="-189.9" font-family="Times Roman,serif" font-size="14.00">set_vehicle</text>
<text text-anchor="start" x="32" y="-171.9" font-family="Times Roman,serif" font-size="14.00">vehicle_params</text>
</g>
</g>
</svg>
