<?xml version="1.0" encoding="UTF-8" standalone="no"?>
<!DOCTYPE svg PUBLIC "-//W3C//DTD SVG 1.1//EN"
 "http://www.w3.org/Graphics/SVG/1.1/DTD/svg11.dtd">
<!-- Generated by graphviz version 2.26.3 (20100126.1600)
 -->
<!-- Title: models_diagram Pages: 1 -->
<svg width="754pt" height="728pt"
 viewBox="0.00 0.00 754.00 728.00" xmlns="http://www.w3.org/2000/svg" xmlns:xlink="http://www.w3.org/1999/xlink">
<g id="graph1" class="graph" transform="scale(1 1) rotate(0) translate(4 724)">
<title>models_diagram</title>
<polygon fill="white" stroke="white" points="-4,5 -4,-724 751,-724 751,5 -4,5"/>
<!-- _diagram_info -->
<g id="node1" class="node"><title>_diagram_info</title>
<text text-anchor="start" x="8" y="-678.8" font-family="Times Roman,serif" font-size="13.00">Models diagram</text>
<text text-anchor="start" x="8" y="-661.8" font-family="Times Roman,serif" font-size="13.00">Date: May 10 2015 &#45; 17:51</text>
<text text-anchor="start" x="8" y="-644.8" font-family="Times Roman,serif" font-size="13.00">Migration version: 20150510101931</text>
<text text-anchor="start" x="8" y="-627.8" font-family="Times Roman,serif" font-size="13.00">Generated by RailRoady 1.3.0</text>
<text text-anchor="start" x="8" y="-610.8" font-family="Times Roman,serif" font-size="13.00">http://railroady.prestonlee.com</text>
</g>
<!-- ShareUser -->
<g id="node2" class="node"><title>ShareUser</title>
<polyline fill="none" stroke="black" points="352.5,-217 493.5,-217 "/>
<path fill="none" stroke="black" d="M493.5,-217C499.5,-217 505.5,-223 505.5,-229"/>
<polyline fill="none" stroke="black" points="505.5,-229 505.5,-329 "/>
<path fill="none" stroke="black" d="M505.5,-329C505.5,-335 499.5,-341 493.5,-341"/>
<polyline fill="none" stroke="black" points="493.5,-341 352.5,-341 "/>
<path fill="none" stroke="black" d="M352.5,-341C346.5,-341 340.5,-335 340.5,-329"/>
<polyline fill="none" stroke="black" points="340.5,-329 340.5,-229 "/>
<path fill="none" stroke="black" d="M340.5,-229C340.5,-223 346.5,-217 352.5,-217"/>
<text text-anchor="middle" x="423" y="-324.4" font-family="Times Roman,serif" font-size="14.00">ShareUser</text>
<polyline fill="none" stroke="black" points="340.5,-315 505.5,-315 "/>
<text text-anchor="start" x="348.5" y="-298.4" font-family="Times Roman,serif" font-size="14.00">id :integer</text>
<text text-anchor="start" x="348.5" y="-280.4" font-family="Times Roman,serif" font-size="14.00">driver :integer</text>
<text text-anchor="start" x="348.5" y="-262.4" font-family="Times Roman,serif" font-size="14.00">created_at :datetime</text>
<text text-anchor="start" x="348.5" y="-244.4" font-family="Times Roman,serif" font-size="14.00">updated_at :datetime</text>
<text text-anchor="start" x="348.5" y="-226.4" font-family="Times Roman,serif" font-size="14.00">vehicle_id :integer</text>
</g>
<!-- Stop -->
<g id="node3" class="node"><title>Stop</title>
<polyline fill="none" stroke="black" points="279.5,-577 420.5,-577 "/>
<path fill="none" stroke="black" d="M420.5,-577C426.5,-577 432.5,-583 432.5,-589"/>
<polyline fill="none" stroke="black" points="432.5,-589 432.5,-707 "/>
<path fill="none" stroke="black" d="M432.5,-707C432.5,-713 426.5,-719 420.5,-719"/>
<polyline fill="none" stroke="black" points="420.5,-719 279.5,-719 "/>
<path fill="none" stroke="black" d="M279.5,-719C273.5,-719 267.5,-713 267.5,-707"/>
<polyline fill="none" stroke="black" points="267.5,-707 267.5,-589 "/>
<path fill="none" stroke="black" d="M267.5,-589C267.5,-583 273.5,-577 279.5,-577"/>
<text text-anchor="middle" x="350" y="-702.4" font-family="Times Roman,serif" font-size="14.00">Stop</text>
<polyline fill="none" stroke="black" points="267.5,-693 432.5,-693 "/>
<text text-anchor="start" x="275.5" y="-676.4" font-family="Times Roman,serif" font-size="14.00">id :integer</text>
<text text-anchor="start" x="275.5" y="-658.4" font-family="Times Roman,serif" font-size="14.00">name :string</text>
<text text-anchor="start" x="275.5" y="-640.4" font-family="Times Roman,serif" font-size="14.00">lat :decimal</text>
<text text-anchor="start" x="275.5" y="-622.4" font-family="Times Roman,serif" font-size="14.00">long :decimal</text>
<text text-anchor="start" x="275.5" y="-604.4" font-family="Times Roman,serif" font-size="14.00">created_at :datetime</text>
<text text-anchor="start" x="275.5" y="-586.4" font-family="Times Roman,serif" font-size="14.00">updated_at :datetime</text>
</g>
<!-- Vehicle -->
<g id="node4" class="node"><title>Vehicle</title>
<polyline fill="none" stroke="black" points="352.5,-397 493.5,-397 "/>
<path fill="none" stroke="black" d="M493.5,-397C499.5,-397 505.5,-403 505.5,-409"/>
<polyline fill="none" stroke="black" points="505.5,-409 505.5,-527 "/>
<path fill="none" stroke="black" d="M505.5,-527C505.5,-533 499.5,-539 493.5,-539"/>
<polyline fill="none" stroke="black" points="493.5,-539 352.5,-539 "/>
<path fill="none" stroke="black" d="M352.5,-539C346.5,-539 340.5,-533 340.5,-527"/>
<polyline fill="none" stroke="black" points="340.5,-527 340.5,-409 "/>
<path fill="none" stroke="black" d="M340.5,-409C340.5,-403 346.5,-397 352.5,-397"/>
<text text-anchor="middle" x="423" y="-522.4" font-family="Times Roman,serif" font-size="14.00">Vehicle</text>
<polyline fill="none" stroke="black" points="340.5,-513 505.5,-513 "/>
<text text-anchor="start" x="348.5" y="-496.4" font-family="Times Roman,serif" font-size="14.00">id :integer</text>
<text text-anchor="start" x="348.5" y="-478.4" font-family="Times Roman,serif" font-size="14.00">name :string</text>
<text text-anchor="start" x="348.5" y="-460.4" font-family="Times Roman,serif" font-size="14.00">plate_number :string</text>
<text text-anchor="start" x="348.5" y="-442.4" font-family="Times Roman,serif" font-size="14.00">type :string</text>
<text text-anchor="start" x="348.5" y="-424.4" font-family="Times Roman,serif" font-size="14.00">created_at :datetime</text>
<text text-anchor="start" x="348.5" y="-406.4" font-family="Times Roman,serif" font-size="14.00">updated_at :datetime</text>
</g>
<!-- Stop&#45;&gt;Vehicle -->
<g id="edge4" class="edge"><title>Stop&#45;&gt;Vehicle</title>
<path fill="none" stroke="#49e935" d="M382.649,-567.495C385.158,-561.309 387.692,-555.062 390.201,-548.873"/>
<polygon fill="#49e935" stroke="#49e935" points="382.61,-567.592 374.681,-575.168 380.731,-572.226 378.852,-576.859 378.852,-576.859 378.852,-576.859 380.731,-572.226 383.022,-578.55 382.61,-567.592 382.61,-567.592"/>
<polygon fill="#49e935" stroke="#49e935" points="390.361,-548.48 398.289,-540.905 392.24,-543.847 394.119,-539.213 394.119,-539.213 394.119,-539.213 392.24,-543.847 389.949,-537.522 390.361,-548.48 390.361,-548.48"/>
</g>
<!-- VehicleStop -->
<g id="node5" class="node"><title>VehicleStop</title>
<polyline fill="none" stroke="black" points="170.5,-199 311.5,-199 "/>
<path fill="none" stroke="black" d="M311.5,-199C317.5,-199 323.5,-205 323.5,-211"/>
<polyline fill="none" stroke="black" points="323.5,-211 323.5,-347 "/>
<path fill="none" stroke="black" d="M323.5,-347C323.5,-353 317.5,-359 311.5,-359"/>
<polyline fill="none" stroke="black" points="311.5,-359 170.5,-359 "/>
<path fill="none" stroke="black" d="M170.5,-359C164.5,-359 158.5,-353 158.5,-347"/>
<polyline fill="none" stroke="black" points="158.5,-347 158.5,-211 "/>
<path fill="none" stroke="black" d="M158.5,-211C158.5,-205 164.5,-199 170.5,-199"/>
<text text-anchor="middle" x="241" y="-342.4" font-family="Times Roman,serif" font-size="14.00">VehicleStop</text>
<polyline fill="none" stroke="black" points="158.5,-333 323.5,-333 "/>
<text text-anchor="start" x="166.5" y="-316.4" font-family="Times Roman,serif" font-size="14.00">id :integer</text>
<text text-anchor="start" x="166.5" y="-298.4" font-family="Times Roman,serif" font-size="14.00">prev :datetime</text>
<text text-anchor="start" x="166.5" y="-280.4" font-family="Times Roman,serif" font-size="14.00">avg :datetime</text>
<text text-anchor="start" x="166.5" y="-262.4" font-family="Times Roman,serif" font-size="14.00">created_at :datetime</text>
<text text-anchor="start" x="166.5" y="-244.4" font-family="Times Roman,serif" font-size="14.00">updated_at :datetime</text>
<text text-anchor="start" x="166.5" y="-226.4" font-family="Times Roman,serif" font-size="14.00">vehicle_id :integer</text>
<text text-anchor="start" x="166.5" y="-208.4" font-family="Times Roman,serif" font-size="14.00">stop_id :integer</text>
</g>
<!-- Stop&#45;&gt;VehicleStop -->
<g id="edge2" class="edge"><title>Stop&#45;&gt;VehicleStop</title>
<path fill="none" stroke="#170088" d="M326.678,-569.048C309.328,-510.313 285.626,-430.073 267.549,-368.876"/>
<ellipse fill="none" stroke="#170088" cx="327.851" cy="-573.017" rx="4.00001" ry="4.00001"/>
<polygon fill="#170088" stroke="#170088" points="267.531,-368.814 269.013,-357.949 266.114,-364.019 264.698,-359.224 264.698,-359.224 264.698,-359.224 266.114,-364.019 260.382,-360.499 267.531,-368.814 267.531,-368.814"/>
</g>
<!-- Vehicle&#45;&gt;ShareUser -->
<g id="edge12" class="edge"><title>Vehicle&#45;&gt;ShareUser</title>
<path fill="none" stroke="#7eb263" d="M423,-388.589C423,-376.204 423,-363.465 423,-351.25"/>
<ellipse fill="none" stroke="#7eb263" cx="423" cy="-392.817" rx="4" ry="4"/>
<polygon fill="#7eb263" stroke="#7eb263" points="423,-351.134 427.5,-341.134 423,-346.134 423,-341.134 423,-341.134 423,-341.134 423,-346.134 418.5,-341.134 423,-351.134 423,-351.134"/>
</g>
<!-- Vehicle&#45;&gt;VehicleStop -->
<g id="edge10" class="edge"><title>Vehicle&#45;&gt;VehicleStop</title>
<path fill="none" stroke="#155a37" d="M348.891,-391.04C341.18,-383.033 333.302,-374.852 325.488,-366.737"/>
<ellipse fill="none" stroke="#155a37" cx="351.678" cy="-393.935" rx="4.00002" ry="4.00002"/>
<polygon fill="#155a37" stroke="#155a37" points="325.273,-366.514 321.578,-356.19 321.805,-362.913 318.336,-359.311 318.336,-359.311 318.336,-359.311 321.805,-362.913 315.095,-362.432 325.273,-366.514 325.273,-366.514"/>
</g>
<!-- QueryUser -->
<g id="node6" class="node"><title>QueryUser</title>
<polyline fill="none" stroke="black" points="534.5,-199 675.5,-199 "/>
<path fill="none" stroke="black" d="M675.5,-199C681.5,-199 687.5,-205 687.5,-211"/>
<polyline fill="none" stroke="black" points="687.5,-211 687.5,-347 "/>
<path fill="none" stroke="black" d="M687.5,-347C687.5,-353 681.5,-359 675.5,-359"/>
<polyline fill="none" stroke="black" points="675.5,-359 534.5,-359 "/>
<path fill="none" stroke="black" d="M534.5,-359C528.5,-359 522.5,-353 522.5,-347"/>
<polyline fill="none" stroke="black" points="522.5,-347 522.5,-211 "/>
<path fill="none" stroke="black" d="M522.5,-211C522.5,-205 528.5,-199 534.5,-199"/>
<text text-anchor="middle" x="605" y="-342.4" font-family="Times Roman,serif" font-size="14.00">QueryUser</text>
<polyline fill="none" stroke="black" points="522.5,-333 687.5,-333 "/>
<text text-anchor="start" x="530.5" y="-316.4" font-family="Times Roman,serif" font-size="14.00">id :integer</text>
<text text-anchor="start" x="530.5" y="-298.4" font-family="Times Roman,serif" font-size="14.00">name :string</text>
<text text-anchor="start" x="530.5" y="-280.4" font-family="Times Roman,serif" font-size="14.00">password :string</text>
<text text-anchor="start" x="530.5" y="-262.4" font-family="Times Roman,serif" font-size="14.00">email :string</text>
<text text-anchor="start" x="530.5" y="-244.4" font-family="Times Roman,serif" font-size="14.00">mobile :string</text>
<text text-anchor="start" x="530.5" y="-226.4" font-family="Times Roman,serif" font-size="14.00">created_at :datetime</text>
<text text-anchor="start" x="530.5" y="-208.4" font-family="Times Roman,serif" font-size="14.00">updated_at :datetime</text>
</g>
<!-- Vehicle&#45;&gt;QueryUser -->
<g id="edge8" class="edge"><title>Vehicle&#45;&gt;QueryUser</title>
<path fill="none" stroke="#11da97" d="M498.51,-389.586C505.732,-382.086 513.087,-374.448 520.388,-366.866"/>
<polygon fill="#11da97" stroke="#11da97" points="498.484,-389.613 488.306,-393.695 495.015,-393.215 491.547,-396.817 491.547,-396.817 491.547,-396.817 495.015,-393.215 494.789,-399.938 498.484,-389.613 498.484,-389.613"/>
<polygon fill="#11da97" stroke="#11da97" points="520.727,-366.514 530.905,-362.432 524.195,-362.913 527.664,-359.311 527.664,-359.311 527.664,-359.311 524.195,-362.913 524.422,-356.19 520.727,-366.514 520.727,-366.514"/>
</g>
<!-- Reservation -->
<g id="node7" class="node"><title>Reservation</title>
<polyline fill="none" stroke="black" points="586,-1 734,-1 "/>
<path fill="none" stroke="black" d="M734,-1C740,-1 746,-7 746,-13"/>
<polyline fill="none" stroke="black" points="746,-13 746,-149 "/>
<path fill="none" stroke="black" d="M746,-149C746,-155 740,-161 734,-161"/>
<polyline fill="none" stroke="black" points="734,-161 586,-161 "/>
<path fill="none" stroke="black" d="M586,-161C580,-161 574,-155 574,-149"/>
<polyline fill="none" stroke="black" points="574,-149 574,-13 "/>
<path fill="none" stroke="black" d="M574,-13C574,-7 580,-1 586,-1"/>
<text text-anchor="middle" x="660" y="-144.4" font-family="Times Roman,serif" font-size="14.00">Reservation</text>
<polyline fill="none" stroke="black" points="574,-135 746,-135 "/>
<text text-anchor="start" x="582" y="-118.4" font-family="Times Roman,serif" font-size="14.00">id :integer</text>
<text text-anchor="start" x="582" y="-100.4" font-family="Times Roman,serif" font-size="14.00">passenger_stop :string</text>
<text text-anchor="start" x="582" y="-82.4" font-family="Times Roman,serif" font-size="14.00">is_alert :</text>
<text text-anchor="start" x="582" y="-64.4" font-family="Times Roman,serif" font-size="14.00">created_at :datetime</text>
<text text-anchor="start" x="582" y="-46.4" font-family="Times Roman,serif" font-size="14.00">updated_at :datetime</text>
<text text-anchor="start" x="582" y="-28.4" font-family="Times Roman,serif" font-size="14.00">query_user_id :integer</text>
<text text-anchor="start" x="582" y="-10.4" font-family="Times Roman,serif" font-size="14.00">vehicle_id :integer</text>
</g>
<!-- Vehicle&#45;&gt;Reservation -->
<g id="edge6" class="edge"><title>Vehicle&#45;&gt;Reservation</title>
<path fill="none" stroke="#cc13e2" d="M513.718,-458.294C576.379,-446.331 655.467,-419.624 696,-360 733.453,-304.906 720.773,-229.311 700.751,-170.706"/>
<ellipse fill="none" stroke="#cc13e2" cx="509.706" cy="-459.029" rx="4.00001" ry="4.00001"/>
<polygon fill="#cc13e2" stroke="#cc13e2" points="700.682,-170.51 701.589,-159.582 699.014,-165.796 697.346,-161.083 697.346,-161.083 697.346,-161.083 699.014,-165.796 693.104,-162.583 700.682,-170.51 700.682,-170.51"/>
</g>
<!-- QueryUser&#45;&gt;Reservation -->
<g id="edge14" class="edge"><title>QueryUser&#45;&gt;Reservation</title>
<path fill="none" stroke="#7fa6a9" d="M629.49,-190.835C631.341,-184.171 633.211,-177.44 635.065,-170.766"/>
<ellipse fill="none" stroke="#7fa6a9" cx="628.362" cy="-194.897" rx="4.00001" ry="4.00001"/>
<polygon fill="#7fa6a9" stroke="#7fa6a9" points="635.09,-170.677 642.102,-162.246 636.428,-165.859 637.766,-161.041 637.766,-161.041 637.766,-161.041 636.428,-165.859 633.43,-159.837 635.09,-170.677 635.09,-170.677"/>
</g>
</g>
</svg>
