<?xml version="1.0" encoding="UTF-8" standalone="no"?>
<!DOCTYPE svg PUBLIC "-//W3C//DTD SVG 1.1//EN"
 "http://www.w3.org/Graphics/SVG/1.1/DTD/svg11.dtd">
<!-- Generated by graphviz version 2.26.3 (20100126.1600)
 -->
<!-- Title: models_diagram Pages: 1 -->
<svg width="754pt" height="764pt"
 viewBox="0.00 0.00 754.00 764.00" xmlns="http://www.w3.org/2000/svg" xmlns:xlink="http://www.w3.org/1999/xlink">
<g id="graph1" class="graph" transform="scale(1 1) rotate(0) translate(4 760)">
<title>models_diagram</title>
<polygon fill="white" stroke="white" points="-4,5 -4,-760 751,-760 751,5 -4,5"/>
<!-- _diagram_info -->
<g id="node1" class="node"><title>_diagram_info</title>
<text text-anchor="start" x="8" y="-714.8" font-family="Times Roman,serif" font-size="13.00">Models diagram</text>
<text text-anchor="start" x="8" y="-697.8" font-family="Times Roman,serif" font-size="13.00">Date: May 12 2015 &#45; 11:40</text>
<text text-anchor="start" x="8" y="-680.8" font-family="Times Roman,serif" font-size="13.00">Migration version: 20150512020603</text>
<text text-anchor="start" x="8" y="-663.8" font-family="Times Roman,serif" font-size="13.00">Generated by RailRoady 1.3.0</text>
<text text-anchor="start" x="8" y="-646.8" font-family="Times Roman,serif" font-size="13.00">http://railroady.prestonlee.com</text>
</g>
<!-- ShareUser -->
<g id="node2" class="node"><title>ShareUser</title>
<polyline fill="none" stroke="black" points="352.5,-199 493.5,-199 "/>
<path fill="none" stroke="black" d="M493.5,-199C499.5,-199 505.5,-205 505.5,-211"/>
<polyline fill="none" stroke="black" points="505.5,-211 505.5,-383 "/>
<path fill="none" stroke="black" d="M505.5,-383C505.5,-389 499.5,-395 493.5,-395"/>
<polyline fill="none" stroke="black" points="493.5,-395 352.5,-395 "/>
<path fill="none" stroke="black" d="M352.5,-395C346.5,-395 340.5,-389 340.5,-383"/>
<polyline fill="none" stroke="black" points="340.5,-383 340.5,-211 "/>
<path fill="none" stroke="black" d="M340.5,-211C340.5,-205 346.5,-199 352.5,-199"/>
<text text-anchor="middle" x="423" y="-378.4" font-family="Times Roman,serif" font-size="14.00">ShareUser</text>
<polyline fill="none" stroke="black" points="340.5,-369 505.5,-369 "/>
<text text-anchor="start" x="348.5" y="-352.4" font-family="Times Roman,serif" font-size="14.00">id :integer</text>
<text text-anchor="start" x="348.5" y="-334.4" font-family="Times Roman,serif" font-size="14.00">driver :integer</text>
<text text-anchor="start" x="348.5" y="-316.4" font-family="Times Roman,serif" font-size="14.00">created_at :datetime</text>
<text text-anchor="start" x="348.5" y="-298.4" font-family="Times Roman,serif" font-size="14.00">updated_at :datetime</text>
<text text-anchor="start" x="348.5" y="-280.4" font-family="Times Roman,serif" font-size="14.00">vehicle_id :integer</text>
<text text-anchor="start" x="348.5" y="-262.4" font-family="Times Roman,serif" font-size="14.00">lat :decimal</text>
<text text-anchor="start" x="348.5" y="-244.4" font-family="Times Roman,serif" font-size="14.00">long :decimal</text>
<text text-anchor="start" x="348.5" y="-226.4" font-family="Times Roman,serif" font-size="14.00">curr_stop :integer</text>
<text text-anchor="start" x="348.5" y="-208.4" font-family="Times Roman,serif" font-size="14.00">prev_stop :integer</text>
</g>
<!-- Stop -->
<g id="node3" class="node"><title>Stop</title>
<polyline fill="none" stroke="black" points="279.5,-613 420.5,-613 "/>
<path fill="none" stroke="black" d="M420.5,-613C426.5,-613 432.5,-619 432.5,-625"/>
<polyline fill="none" stroke="black" points="432.5,-625 432.5,-743 "/>
<path fill="none" stroke="black" d="M432.5,-743C432.5,-749 426.5,-755 420.5,-755"/>
<polyline fill="none" stroke="black" points="420.5,-755 279.5,-755 "/>
<path fill="none" stroke="black" d="M279.5,-755C273.5,-755 267.5,-749 267.5,-743"/>
<polyline fill="none" stroke="black" points="267.5,-743 267.5,-625 "/>
<path fill="none" stroke="black" d="M267.5,-625C267.5,-619 273.5,-613 279.5,-613"/>
<text text-anchor="middle" x="350" y="-738.4" font-family="Times Roman,serif" font-size="14.00">Stop</text>
<polyline fill="none" stroke="black" points="267.5,-729 432.5,-729 "/>
<text text-anchor="start" x="275.5" y="-712.4" font-family="Times Roman,serif" font-size="14.00">id :integer</text>
<text text-anchor="start" x="275.5" y="-694.4" font-family="Times Roman,serif" font-size="14.00">name :string</text>
<text text-anchor="start" x="275.5" y="-676.4" font-family="Times Roman,serif" font-size="14.00">lat :decimal</text>
<text text-anchor="start" x="275.5" y="-658.4" font-family="Times Roman,serif" font-size="14.00">long :decimal</text>
<text text-anchor="start" x="275.5" y="-640.4" font-family="Times Roman,serif" font-size="14.00">created_at :datetime</text>
<text text-anchor="start" x="275.5" y="-622.4" font-family="Times Roman,serif" font-size="14.00">updated_at :datetime</text>
</g>
<!-- Vehicle -->
<g id="node4" class="node"><title>Vehicle</title>
<polyline fill="none" stroke="black" points="352.5,-433 493.5,-433 "/>
<path fill="none" stroke="black" d="M493.5,-433C499.5,-433 505.5,-439 505.5,-445"/>
<polyline fill="none" stroke="black" points="505.5,-445 505.5,-563 "/>
<path fill="none" stroke="black" d="M505.5,-563C505.5,-569 499.5,-575 493.5,-575"/>
<polyline fill="none" stroke="black" points="493.5,-575 352.5,-575 "/>
<path fill="none" stroke="black" d="M352.5,-575C346.5,-575 340.5,-569 340.5,-563"/>
<polyline fill="none" stroke="black" points="340.5,-563 340.5,-445 "/>
<path fill="none" stroke="black" d="M340.5,-445C340.5,-439 346.5,-433 352.5,-433"/>
<text text-anchor="middle" x="423" y="-558.4" font-family="Times Roman,serif" font-size="14.00">Vehicle</text>
<polyline fill="none" stroke="black" points="340.5,-549 505.5,-549 "/>
<text text-anchor="start" x="348.5" y="-532.4" font-family="Times Roman,serif" font-size="14.00">id :integer</text>
<text text-anchor="start" x="348.5" y="-514.4" font-family="Times Roman,serif" font-size="14.00">name :string</text>
<text text-anchor="start" x="348.5" y="-496.4" font-family="Times Roman,serif" font-size="14.00">plate_number :string</text>
<text text-anchor="start" x="348.5" y="-478.4" font-family="Times Roman,serif" font-size="14.00">type :string</text>
<text text-anchor="start" x="348.5" y="-460.4" font-family="Times Roman,serif" font-size="14.00">created_at :datetime</text>
<text text-anchor="start" x="348.5" y="-442.4" font-family="Times Roman,serif" font-size="14.00">updated_at :datetime</text>
</g>
<!-- Stop&#45;&gt;Vehicle -->
<g id="edge4" class="edge"><title>Stop&#45;&gt;Vehicle</title>
<path fill="none" stroke="#3043fb" d="M382.649,-603.495C385.158,-597.309 387.692,-591.062 390.201,-584.873"/>
<polygon fill="#3043fb" stroke="#3043fb" points="382.61,-603.592 374.681,-611.168 380.731,-608.226 378.852,-612.859 378.852,-612.859 378.852,-612.859 380.731,-608.226 383.022,-614.55 382.61,-603.592 382.61,-603.592"/>
<polygon fill="#3043fb" stroke="#3043fb" points="390.361,-584.48 398.289,-576.905 392.24,-579.847 394.119,-575.213 394.119,-575.213 394.119,-575.213 392.24,-579.847 389.949,-573.522 390.361,-584.48 390.361,-584.48"/>
</g>
<!-- VehicleStop -->
<g id="node5" class="node"><title>VehicleStop</title>
<polyline fill="none" stroke="black" points="170.5,-208 311.5,-208 "/>
<path fill="none" stroke="black" d="M311.5,-208C317.5,-208 323.5,-214 323.5,-220"/>
<polyline fill="none" stroke="black" points="323.5,-220 323.5,-374 "/>
<path fill="none" stroke="black" d="M323.5,-374C323.5,-380 317.5,-386 311.5,-386"/>
<polyline fill="none" stroke="black" points="311.5,-386 170.5,-386 "/>
<path fill="none" stroke="black" d="M170.5,-386C164.5,-386 158.5,-380 158.5,-374"/>
<polyline fill="none" stroke="black" points="158.5,-374 158.5,-220 "/>
<path fill="none" stroke="black" d="M158.5,-220C158.5,-214 164.5,-208 170.5,-208"/>
<text text-anchor="middle" x="241" y="-369.4" font-family="Times Roman,serif" font-size="14.00">VehicleStop</text>
<polyline fill="none" stroke="black" points="158.5,-360 323.5,-360 "/>
<text text-anchor="start" x="166.5" y="-343.4" font-family="Times Roman,serif" font-size="14.00">id :integer</text>
<text text-anchor="start" x="166.5" y="-325.4" font-family="Times Roman,serif" font-size="14.00">prev :datetime</text>
<text text-anchor="start" x="166.5" y="-307.4" font-family="Times Roman,serif" font-size="14.00">avg :datetime</text>
<text text-anchor="start" x="166.5" y="-289.4" font-family="Times Roman,serif" font-size="14.00">created_at :datetime</text>
<text text-anchor="start" x="166.5" y="-271.4" font-family="Times Roman,serif" font-size="14.00">updated_at :datetime</text>
<text text-anchor="start" x="166.5" y="-253.4" font-family="Times Roman,serif" font-size="14.00">vehicle_id :integer</text>
<text text-anchor="start" x="166.5" y="-235.4" font-family="Times Roman,serif" font-size="14.00">stop_id :integer</text>
<text text-anchor="start" x="166.5" y="-217.4" font-family="Times Roman,serif" font-size="14.00">seq_num :integer</text>
</g>
<!-- Stop&#45;&gt;VehicleStop -->
<g id="edge2" class="edge"><title>Stop&#45;&gt;VehicleStop</title>
<path fill="none" stroke="#361306" d="M327.625,-604.559C310.605,-544.128 287.083,-460.616 268.845,-395.862"/>
<ellipse fill="none" stroke="#361306" cx="328.796" cy="-608.717" rx="4.00001" ry="4.00001"/>
<polygon fill="#361306" stroke="#361306" points="268.791,-395.67 270.411,-384.824 267.435,-390.857 266.08,-386.044 266.08,-386.044 266.08,-386.044 267.435,-390.857 261.748,-387.264 268.791,-395.67 268.791,-395.67"/>
</g>
<!-- Vehicle&#45;&gt;ShareUser -->
<g id="edge12" class="edge"><title>Vehicle&#45;&gt;ShareUser</title>
<path fill="none" stroke="#735e54" d="M423,-424.694C423,-418.329 423,-411.835 423,-405.315"/>
<ellipse fill="none" stroke="#735e54" cx="423" cy="-428.762" rx="4" ry="4"/>
<polygon fill="#735e54" stroke="#735e54" points="423,-405.063 427.5,-395.063 423,-400.063 423,-395.063 423,-395.063 423,-395.063 423,-400.063 418.5,-395.063 423,-405.063 423,-405.063"/>
</g>
<!-- Vehicle&#45;&gt;VehicleStop -->
<g id="edge10" class="edge"><title>Vehicle&#45;&gt;VehicleStop</title>
<path fill="none" stroke="#f47edf" d="M355.078,-426.748C345.656,-416.032 335.88,-404.913 326.192,-393.895"/>
<ellipse fill="none" stroke="#f47edf" cx="357.725" cy="-429.758" rx="4.00002" ry="4.00002"/>
<polygon fill="#f47edf" stroke="#f47edf" points="326.108,-393.799 322.884,-383.317 322.806,-390.044 319.505,-386.289 319.505,-386.289 319.505,-386.289 322.806,-390.044 316.125,-389.26 326.108,-393.799 326.108,-393.799"/>
</g>
<!-- QueryUser -->
<g id="node6" class="node"><title>QueryUser</title>
<polyline fill="none" stroke="black" points="534.5,-217 675.5,-217 "/>
<path fill="none" stroke="black" d="M675.5,-217C681.5,-217 687.5,-223 687.5,-229"/>
<polyline fill="none" stroke="black" points="687.5,-229 687.5,-365 "/>
<path fill="none" stroke="black" d="M687.5,-365C687.5,-371 681.5,-377 675.5,-377"/>
<polyline fill="none" stroke="black" points="675.5,-377 534.5,-377 "/>
<path fill="none" stroke="black" d="M534.5,-377C528.5,-377 522.5,-371 522.5,-365"/>
<polyline fill="none" stroke="black" points="522.5,-365 522.5,-229 "/>
<path fill="none" stroke="black" d="M522.5,-229C522.5,-223 528.5,-217 534.5,-217"/>
<text text-anchor="middle" x="605" y="-360.4" font-family="Times Roman,serif" font-size="14.00">QueryUser</text>
<polyline fill="none" stroke="black" points="522.5,-351 687.5,-351 "/>
<text text-anchor="start" x="530.5" y="-334.4" font-family="Times Roman,serif" font-size="14.00">id :integer</text>
<text text-anchor="start" x="530.5" y="-316.4" font-family="Times Roman,serif" font-size="14.00">name :string</text>
<text text-anchor="start" x="530.5" y="-298.4" font-family="Times Roman,serif" font-size="14.00">password :string</text>
<text text-anchor="start" x="530.5" y="-280.4" font-family="Times Roman,serif" font-size="14.00">email :string</text>
<text text-anchor="start" x="530.5" y="-262.4" font-family="Times Roman,serif" font-size="14.00">mobile :string</text>
<text text-anchor="start" x="530.5" y="-244.4" font-family="Times Roman,serif" font-size="14.00">created_at :datetime</text>
<text text-anchor="start" x="530.5" y="-226.4" font-family="Times Roman,serif" font-size="14.00">updated_at :datetime</text>
</g>
<!-- Vehicle&#45;&gt;QueryUser -->
<g id="edge8" class="edge"><title>Vehicle&#45;&gt;QueryUser</title>
<path fill="none" stroke="#dca300" d="M492.34,-425.136C503.865,-412.028 515.882,-398.36 527.592,-385.041"/>
<polygon fill="#dca300" stroke="#dca300" points="492.237,-425.252 482.255,-429.791 488.936,-429.007 485.634,-432.762 485.634,-432.762 485.634,-432.762 488.936,-429.007 489.014,-435.734 492.237,-425.252 492.237,-425.252"/>
<polygon fill="#dca300" stroke="#dca300" points="527.842,-384.757 537.824,-380.218 531.143,-381.002 534.445,-377.247 534.445,-377.247 534.445,-377.247 531.143,-381.002 531.065,-374.275 527.842,-384.757 527.842,-384.757"/>
</g>
<!-- Reservation -->
<g id="node7" class="node"><title>Reservation</title>
<polyline fill="none" stroke="black" points="586,-1 734,-1 "/>
<path fill="none" stroke="black" d="M734,-1C740,-1 746,-7 746,-13"/>
<polyline fill="none" stroke="black" points="746,-13 746,-149 "/>
<path fill="none" stroke="black" d="M746,-149C746,-155 740,-161 734,-161"/>
<polyline fill="none" stroke="black" points="734,-161 586,-161 "/>
<path fill="none" stroke="black" d="M586,-161C580,-161 574,-155 574,-149"/>
<polyline fill="none" stroke="black" points="574,-149 574,-13 "/>
<path fill="none" stroke="black" d="M574,-13C574,-7 580,-1 586,-1"/>
<text text-anchor="middle" x="660" y="-144.4" font-family="Times Roman,serif" font-size="14.00">Reservation</text>
<polyline fill="none" stroke="black" points="574,-135 746,-135 "/>
<text text-anchor="start" x="582" y="-118.4" font-family="Times Roman,serif" font-size="14.00">id :integer</text>
<text text-anchor="start" x="582" y="-100.4" font-family="Times Roman,serif" font-size="14.00">passenger_stop :string</text>
<text text-anchor="start" x="582" y="-82.4" font-family="Times Roman,serif" font-size="14.00">is_alert :</text>
<text text-anchor="start" x="582" y="-64.4" font-family="Times Roman,serif" font-size="14.00">created_at :datetime</text>
<text text-anchor="start" x="582" y="-46.4" font-family="Times Roman,serif" font-size="14.00">updated_at :datetime</text>
<text text-anchor="start" x="582" y="-28.4" font-family="Times Roman,serif" font-size="14.00">query_user_id :integer</text>
<text text-anchor="start" x="582" y="-10.4" font-family="Times Roman,serif" font-size="14.00">vehicle_id :integer</text>
</g>
<!-- Vehicle&#45;&gt;Reservation -->
<g id="edge6" class="edge"><title>Vehicle&#45;&gt;Reservation</title>
<path fill="none" stroke="#ee54e2" d="M513.718,-494.294C576.379,-482.331 655.467,-455.624 696,-396 740.685,-330.268 723.506,-238.469 700.036,-170.923"/>
<ellipse fill="none" stroke="#ee54e2" cx="509.706" cy="-495.029" rx="4.00001" ry="4.00001"/>
<polygon fill="#ee54e2" stroke="#ee54e2" points="699.904,-170.554 700.771,-159.622 698.22,-165.846 696.535,-161.139 696.535,-161.139 696.535,-161.139 698.22,-165.846 692.298,-162.655 699.904,-170.554 699.904,-170.554"/>
</g>
<!-- QueryUser&#45;&gt;Reservation -->
<g id="edge14" class="edge"><title>QueryUser&#45;&gt;Reservation</title>
<path fill="none" stroke="#1ce1ea" d="M627.475,-208.736C630.625,-196.363 633.867,-183.633 637.026,-171.224"/>
<ellipse fill="none" stroke="#1ce1ea" cx="626.389" cy="-213" rx="4.00001" ry="4.00001"/>
<polygon fill="#1ce1ea" stroke="#1ce1ea" points="637.072,-171.045 643.9,-162.465 638.306,-166.2 639.539,-161.354 639.539,-161.354 639.539,-161.354 638.306,-166.2 635.179,-160.244 637.072,-171.045 637.072,-171.045"/>
</g>
</g>
</svg>
