<?xml version="1.0" encoding="UTF-8" standalone="no"?>
<!DOCTYPE svg PUBLIC "-//W3C//DTD SVG 1.1//EN"
 "http://www.w3.org/Graphics/SVG/1.1/DTD/svg11.dtd">
<!-- Generated by graphviz version 2.26.3 (20100126.1600)
 -->
<!-- Title: models_diagram Pages: 1 -->
<svg width="625pt" height="324pt"
 viewBox="0.00 0.00 625.00 324.00" xmlns="http://www.w3.org/2000/svg" xmlns:xlink="http://www.w3.org/1999/xlink">
<g id="graph1" class="graph" transform="scale(1 1) rotate(0) translate(4 320)">
<title>models_diagram</title>
<polygon fill="white" stroke="white" points="-4,5 -4,-320 622,-320 622,5 -4,5"/>
<!-- _diagram_info -->
<g id="node1" class="node"><title>_diagram_info</title>
<text text-anchor="start" x="8" y="-299.8" font-family="Times Roman,serif" font-size="13.00">Models diagram</text>
<text text-anchor="start" x="8" y="-282.8" font-family="Times Roman,serif" font-size="13.00">Date: May 11 2015 &#45; 04:21</text>
<text text-anchor="start" x="8" y="-265.8" font-family="Times Roman,serif" font-size="13.00">Migration version: 20150511004422</text>
<text text-anchor="start" x="8" y="-248.8" font-family="Times Roman,serif" font-size="13.00">Generated by RailRoady 1.3.0</text>
<text text-anchor="start" x="8" y="-231.8" font-family="Times Roman,serif" font-size="13.00">http://railroady.prestonlee.com</text>
</g>
<!-- ShareUser -->
<g id="node2" class="node"><title>ShareUser</title>
<ellipse fill="none" stroke="black" cx="357" cy="-93" rx="62.9325" ry="18.3848"/>
<text text-anchor="middle" x="357" y="-89.4" font-family="Times Roman,serif" font-size="14.00">ShareUser</text>
</g>
<!-- Stop -->
<g id="node3" class="node"><title>Stop</title>
<ellipse fill="none" stroke="black" cx="302" cy="-269" rx="33.9411" ry="18.3848"/>
<text text-anchor="middle" x="302" y="-265.4" font-family="Times Roman,serif" font-size="14.00">Stop</text>
</g>
<!-- Vehicle -->
<g id="node4" class="node"><title>Vehicle</title>
<ellipse fill="none" stroke="black" cx="357" cy="-167" rx="45.9619" ry="18.3848"/>
<text text-anchor="middle" x="357" y="-163.4" font-family="Times Roman,serif" font-size="14.00">Vehicle</text>
</g>
<!-- Stop&#45;&gt;Vehicle -->
<g id="edge4" class="edge"><title>Stop&#45;&gt;Vehicle</title>
<path fill="none" stroke="#4be279" d="M316.353,-242.382C324.303,-227.638 334.171,-209.337 342.193,-194.46"/>
<polygon fill="#4be279" stroke="#4be279" points="316.326,-242.431 307.619,-249.097 313.953,-246.832 311.58,-251.233 311.58,-251.233 311.58,-251.233 313.953,-246.832 315.541,-253.369 316.326,-242.431 316.326,-242.431"/>
<polygon fill="#4be279" stroke="#4be279" points="342.413,-194.052 351.12,-187.386 344.786,-189.651 347.159,-185.25 347.159,-185.25 347.159,-185.25 344.786,-189.651 343.198,-183.114 342.413,-194.052 342.413,-194.052"/>
</g>
<!-- VehicleStop -->
<g id="node5" class="node"><title>VehicleStop</title>
<ellipse fill="none" stroke="black" cx="208" cy="-93" rx="68.0887" ry="18.3848"/>
<text text-anchor="middle" x="208" y="-89.4" font-family="Times Roman,serif" font-size="14.00">VehicleStop</text>
</g>
<!-- Stop&#45;&gt;VehicleStop -->
<g id="edge2" class="edge"><title>Stop&#45;&gt;VehicleStop</title>
<path fill="none" stroke="#2a6b65" d="M288.638,-243.982C271.159,-211.256 240.642,-154.116 222.58,-120.3"/>
<ellipse fill="none" stroke="#2a6b65" cx="290.585" cy="-247.627" rx="4.00002" ry="4.00002"/>
<polygon fill="#2a6b65" stroke="#2a6b65" points="222.549,-120.24 221.807,-109.3 220.193,-115.83 217.838,-111.42 217.838,-111.42 217.838,-111.42 220.193,-115.83 213.868,-113.54 222.549,-120.24 222.549,-120.24"/>
</g>
<!-- Vehicle&#45;&gt;ShareUser -->
<g id="edge12" class="edge"><title>Vehicle&#45;&gt;ShareUser</title>
<path fill="none" stroke="#e25cbe" d="M357,-140.309C357,-134.377 357,-128.061 357,-122.04"/>
<ellipse fill="none" stroke="#e25cbe" cx="357" cy="-144.327" rx="4" ry="4"/>
<polygon fill="#e25cbe" stroke="#e25cbe" points="357,-121.667 361.5,-111.667 357,-116.667 357,-111.667 357,-111.667 357,-111.667 357,-116.667 352.5,-111.667 357,-121.667 357,-121.667"/>
</g>
<!-- Vehicle&#45;&gt;VehicleStop -->
<g id="edge10" class="edge"><title>Vehicle&#45;&gt;VehicleStop</title>
<path fill="none" stroke="#bd5a24" d="M320.618,-148.931C299.314,-138.351 272.319,-124.944 250.099,-113.908"/>
<ellipse fill="none" stroke="#bd5a24" cx="324.335" cy="-150.777" rx="4.00002" ry="4.00002"/>
<polygon fill="#bd5a24" stroke="#bd5a24" points="249.856,-113.788 242.901,-105.309 245.378,-111.564 240.9,-109.339 240.9,-109.339 240.9,-109.339 245.378,-111.564 238.898,-113.37 249.856,-113.788 249.856,-113.788"/>
</g>
<!-- QueryUser -->
<g id="node6" class="node"><title>QueryUser</title>
<ellipse fill="none" stroke="black" cx="502" cy="-93" rx="63.8479" ry="18.3848"/>
<text text-anchor="middle" x="502" y="-89.4" font-family="Times Roman,serif" font-size="14.00">QueryUser</text>
</g>
<!-- Vehicle&#45;&gt;QueryUser -->
<g id="edge8" class="edge"><title>Vehicle&#45;&gt;QueryUser</title>
<path fill="none" stroke="#e02cad" d="M394.641,-147.79C415.13,-137.334 440.493,-124.39 461.422,-113.709"/>
<polygon fill="#e02cad" stroke="#e02cad" points="394.554,-147.834 383.602,-148.372 390.101,-150.107 385.647,-152.38 385.647,-152.38 385.647,-152.38 390.101,-150.107 387.693,-156.388 394.554,-147.834 394.554,-147.834"/>
<polygon fill="#e02cad" stroke="#e02cad" points="461.485,-113.677 472.437,-113.139 465.938,-111.404 470.392,-109.131 470.392,-109.131 470.392,-109.131 465.938,-111.404 468.346,-105.123 461.485,-113.677 461.485,-113.677"/>
</g>
<!-- Reservation -->
<g id="node7" class="node"><title>Reservation</title>
<ellipse fill="none" stroke="black" cx="548" cy="-19" rx="68.7979" ry="18.3848"/>
<text text-anchor="middle" x="548" y="-15.4" font-family="Times Roman,serif" font-size="14.00">Reservation</text>
</g>
<!-- Vehicle&#45;&gt;Reservation -->
<g id="edge6" class="edge"><title>Vehicle&#45;&gt;Reservation</title>
<path fill="none" stroke="#302ad0" d="M409.823,-161.087C467.662,-153.398 554.896,-137.806 575,-112 589.874,-92.9077 579.483,-65.8806 567.537,-45.8795"/>
<ellipse fill="none" stroke="#302ad0" cx="405.834" cy="-161.605" rx="4.00001" ry="4.00001"/>
<polygon fill="#302ad0" stroke="#302ad0" points="567.403,-45.6686 565.818,-34.8177 564.714,-41.4532 562.025,-37.2379 562.025,-37.2379 562.025,-37.2379 564.714,-41.4532 558.231,-39.658 567.403,-45.6686 567.403,-45.6686"/>
</g>
<!-- QueryUser&#45;&gt;Reservation -->
<g id="edge14" class="edge"><title>QueryUser&#45;&gt;Reservation</title>
<path fill="none" stroke="#cb97fe" d="M517.716,-67.7178C522.075,-60.7059 526.823,-53.0678 531.239,-45.9638"/>
<ellipse fill="none" stroke="#cb97fe" cx="515.483" cy="-71.3107" rx="4.00002" ry="4.00002"/>
<polygon fill="#cb97fe" stroke="#cb97fe" points="531.321,-45.831 540.422,-39.7139 533.961,-41.5846 536.601,-37.3382 536.601,-37.3382 536.601,-37.3382 533.961,-41.5846 532.779,-34.9624 531.321,-45.831 531.321,-45.831"/>
</g>
</g>
</svg>
