<?xml version="1.0" encoding="UTF-8" standalone="no"?>
<!DOCTYPE svg PUBLIC "-//W3C//DTD SVG 1.1//EN"
 "http://www.w3.org/Graphics/SVG/1.1/DTD/svg11.dtd">
<!-- Generated by graphviz version 2.26.3 (20100126.1600)
 -->
<!-- Title: models_diagram Pages: 1 -->
<svg width="887pt" height="270pt"
 viewBox="0.00 0.00 887.00 270.00" xmlns="http://www.w3.org/2000/svg" xmlns:xlink="http://www.w3.org/1999/xlink">
<g id="graph1" class="graph" transform="scale(1 1) rotate(0) translate(4 266)">
<title>models_diagram</title>
<polygon fill="white" stroke="white" points="-4,5 -4,-266 884,-266 884,5 -4,5"/>
<!-- _diagram_info -->
<g id="node1" class="node"><title>_diagram_info</title>
<text text-anchor="start" x="8" y="-245.8" font-family="Times Roman,serif" font-size="13.00">Models diagram</text>
<text text-anchor="start" x="8" y="-228.8" font-family="Times Roman,serif" font-size="13.00">Date: May 10 2015 &#45; 13:24</text>
<text text-anchor="start" x="8" y="-211.8" font-family="Times Roman,serif" font-size="13.00">Migration version: 20150510101931</text>
<text text-anchor="start" x="8" y="-194.8" font-family="Times Roman,serif" font-size="13.00">Generated by RailRoady 1.3.0</text>
<text text-anchor="start" x="8" y="-177.8" font-family="Times Roman,serif" font-size="13.00">http://railroady.prestonlee.com</text>
</g>
<!-- ShareUser -->
<g id="node2" class="node"><title>ShareUser</title>
<ellipse fill="none" stroke="black" cx="331" cy="-215" rx="62.9325" ry="18.3848"/>
<text text-anchor="middle" x="331" y="-211.4" font-family="Times Roman,serif" font-size="14.00">ShareUser</text>
</g>
<!-- Stop -->
<g id="node3" class="node"><title>Stop</title>
<ellipse fill="none" stroke="black" cx="446" cy="-215" rx="33.9411" ry="18.3848"/>
<text text-anchor="middle" x="446" y="-211.4" font-family="Times Roman,serif" font-size="14.00">Stop</text>
</g>
<!-- VehicleStop -->
<g id="node5" class="node"><title>VehicleStop</title>
<ellipse fill="none" stroke="black" cx="531" cy="-95" rx="68.0887" ry="18.3848"/>
<text text-anchor="middle" x="531" y="-91.4" font-family="Times Roman,serif" font-size="14.00">VehicleStop</text>
</g>
<!-- Stop&#45;&gt;VehicleStop -->
<g id="edge2" class="edge"><title>Stop&#45;&gt;VehicleStop</title>
<path fill="none" stroke="#198715" d="M463.128,-190.819C477.332,-170.767 497.499,-142.296 512.157,-121.602"/>
<ellipse fill="none" stroke="#198715" cx="460.672" cy="-194.287" rx="4.00002" ry="4.00002"/>
<polygon fill="#198715" stroke="#198715" points="512.288,-121.417 521.74,-115.858 515.178,-117.337 518.068,-113.257 518.068,-113.257 518.068,-113.257 515.178,-117.337 514.396,-110.656 512.288,-121.417 512.288,-121.417"/>
</g>
<!-- Vehicles -->
<g id="node10" class="node"><title>Vehicles</title>
<ellipse fill="none" stroke="black" cx="394" cy="-95" rx="50.9117" ry="18.3848"/>
<text text-anchor="middle" x="394" y="-91.4" font-family="Times Roman,serif" font-size="14.00">Vehicles</text>
</g>
<!-- Stop&#45;&gt;Vehicles -->
<g id="edge4" class="edge"><title>Stop&#45;&gt;Vehicles</title>
<path fill="none" stroke="#b1632c" d="M434.014,-187.34C425.596,-167.915 414.384,-142.04 405.97,-122.623"/>
<polygon fill="#b1632c" stroke="#b1632c" points="434.126,-187.599 433.973,-198.564 436.114,-192.187 438.102,-196.775 438.102,-196.775 438.102,-196.775 436.114,-192.187 442.231,-194.985 434.126,-187.599 434.126,-187.599"/>
<polygon fill="#b1632c" stroke="#b1632c" points="405.948,-122.572 406.101,-111.608 403.96,-117.985 401.972,-113.397 401.972,-113.397 401.972,-113.397 403.96,-117.985 397.843,-115.186 405.948,-122.572 405.948,-122.572"/>
<text text-anchor="middle" x="444.5" y="-137.4" font-family="Times Roman,serif" font-size="14.00">vehicles</text>
</g>
<!-- Vehicle -->
<g id="node4" class="node"><title>Vehicle</title>
<ellipse fill="none" stroke="black" cx="662" cy="-215" rx="45.9619" ry="18.3848"/>
<text text-anchor="middle" x="662" y="-211.4" font-family="Times Roman,serif" font-size="14.00">Vehicle</text>
</g>
<!-- Vehicle&#45;&gt;VehicleStop -->
<g id="edge10" class="edge"><title>Vehicle&#45;&gt;VehicleStop</title>
<path fill="none" stroke="#19f12c" d="M637.141,-192.229C614.555,-171.539 581.309,-141.084 558.061,-119.789"/>
<ellipse fill="none" stroke="#19f12c" cx="640.281" cy="-195.105" rx="4.00002" ry="4.00002"/>
<polygon fill="#19f12c" stroke="#19f12c" points="557.964,-119.7 553.63,-109.627 554.277,-116.322 550.59,-112.945 550.59,-112.945 550.59,-112.945 554.277,-116.322 547.55,-116.263 557.964,-119.7 557.964,-119.7"/>
</g>
<!-- QueryUser -->
<g id="node6" class="node"><title>QueryUser</title>
<ellipse fill="none" stroke="black" cx="815" cy="-95" rx="63.8479" ry="18.3848"/>
<text text-anchor="middle" x="815" y="-91.4" font-family="Times Roman,serif" font-size="14.00">QueryUser</text>
</g>
<!-- Vehicle&#45;&gt;QueryUser -->
<g id="edge8" class="edge"><title>Vehicle&#45;&gt;QueryUser</title>
<path fill="none" stroke="#d2b0d0" d="M691.172,-192.12C717.964,-171.107 757.511,-140.089 784.664,-118.793"/>
<polygon fill="#d2b0d0" stroke="#d2b0d0" points="691.143,-192.143 680.497,-194.774 687.208,-195.229 683.274,-198.315 683.274,-198.315 683.274,-198.315 687.208,-195.229 686.051,-201.855 691.143,-192.143 691.143,-192.143"/>
<polygon fill="#d2b0d0" stroke="#d2b0d0" points="784.797,-118.689 795.443,-116.058 788.731,-115.603 792.665,-112.517 792.665,-112.517 792.665,-112.517 788.731,-115.603 789.888,-108.976 784.797,-118.689 784.797,-118.689"/>
</g>
<!-- Reservation -->
<g id="node7" class="node"><title>Reservation</title>
<ellipse fill="none" stroke="black" cx="680" cy="-19" rx="68.7979" ry="18.3848"/>
<text text-anchor="middle" x="680" y="-15.4" font-family="Times Roman,serif" font-size="14.00">Reservation</text>
</g>
<!-- Vehicle&#45;&gt;Reservation -->
<g id="edge6" class="edge"><title>Vehicle&#45;&gt;Reservation</title>
<path fill="none" stroke="#7a5416" d="M653.159,-188.839C644.939,-160.553 635.427,-114.366 646,-76 648.893,-65.5025 654.283,-54.988 659.933,-45.8995"/>
<ellipse fill="none" stroke="#7a5416" cx="654.373" cy="-192.839" rx="4.00001" ry="4.00001"/>
<polygon fill="#7a5416" stroke="#7a5416" points="660.075,-45.6843 669.341,-39.8197 662.83,-41.512 665.586,-37.3398 665.586,-37.3398 665.586,-37.3398 662.83,-41.512 661.831,-34.8599 660.075,-45.6843 660.075,-45.6843"/>
</g>
<!-- Stops -->
<g id="node15" class="node"><title>Stops</title>
<ellipse fill="none" stroke="black" cx="694" cy="-95" rx="38.8909" ry="18.3848"/>
<text text-anchor="middle" x="694" y="-91.4" font-family="Times Roman,serif" font-size="14.00">Stops</text>
</g>
<!-- Vehicle&#45;&gt;Stops -->
<g id="edge12" class="edge"><title>Vehicle&#45;&gt;Stops</title>
<path fill="none" stroke="#d7e6cc" d="M669.515,-186.818C674.612,-167.706 681.324,-142.533 686.432,-123.38"/>
<polygon fill="#d7e6cc" stroke="#d7e6cc" points="669.507,-186.851 662.582,-195.353 668.218,-191.682 666.93,-196.513 666.93,-196.513 666.93,-196.513 668.218,-191.682 671.278,-197.672 669.507,-186.851 669.507,-186.851"/>
<polygon fill="#d7e6cc" stroke="#d7e6cc" points="686.435,-123.368 693.36,-114.865 687.723,-118.537 689.012,-113.706 689.012,-113.706 689.012,-113.706 687.723,-118.537 684.664,-112.546 686.435,-123.368 686.435,-123.368"/>
<text text-anchor="middle" x="701.5" y="-137.4" font-family="Times Roman,serif" font-size="14.00">stops</text>
</g>
<!-- QueryUser&#45;&gt;Reservation -->
<g id="edge14" class="edge"><title>QueryUser&#45;&gt;Reservation</title>
<path fill="none" stroke="#44f48c" d="M778.611,-74.5146C760.058,-64.0698 737.491,-51.3654 718.63,-40.7471"/>
<ellipse fill="none" stroke="#44f48c" cx="782.221" cy="-76.5468" rx="4.00002" ry="4.00002"/>
<polygon fill="#44f48c" stroke="#44f48c" points="718.416,-40.6269 711.91,-31.7998 714.059,-38.174 709.702,-35.7211 709.702,-35.7211 709.702,-35.7211 714.059,-38.174 707.494,-39.6425 718.416,-40.6269 718.416,-40.6269"/>
</g>
</g>
</svg>
