<?xml version="1.0" encoding="UTF-8" standalone="no"?>
<!DOCTYPE svg PUBLIC "-//W3C//DTD SVG 1.1//EN"
 "http://www.w3.org/Graphics/SVG/1.1/DTD/svg11.dtd">
<!-- Generated by graphviz version 2.26.3 (20100126.1600)
 -->
<!-- Title: models_diagram Pages: 1 -->
<svg width="754pt" height="746pt"
 viewBox="0.00 0.00 754.00 746.00" xmlns="http://www.w3.org/2000/svg" xmlns:xlink="http://www.w3.org/1999/xlink">
<g id="graph1" class="graph" transform="scale(1 1) rotate(0) translate(4 742)">
<title>models_diagram</title>
<polygon fill="white" stroke="white" points="-4,5 -4,-742 751,-742 751,5 -4,5"/>
<!-- _diagram_info -->
<g id="node1" class="node"><title>_diagram_info</title>
<text text-anchor="start" x="8" y="-696.8" font-family="Times Roman,serif" font-size="13.00">Models diagram</text>
<text text-anchor="start" x="8" y="-679.8" font-family="Times Roman,serif" font-size="13.00">Date: May 11 2015 &#45; 04:21</text>
<text text-anchor="start" x="8" y="-662.8" font-family="Times Roman,serif" font-size="13.00">Migration version: 20150511004422</text>
<text text-anchor="start" x="8" y="-645.8" font-family="Times Roman,serif" font-size="13.00">Generated by RailRoady 1.3.0</text>
<text text-anchor="start" x="8" y="-628.8" font-family="Times Roman,serif" font-size="13.00">http://railroady.prestonlee.com</text>
</g>
<!-- ShareUser -->
<g id="node2" class="node"><title>ShareUser</title>
<polyline fill="none" stroke="black" points="352.5,-199 493.5,-199 "/>
<path fill="none" stroke="black" d="M493.5,-199C499.5,-199 505.5,-205 505.5,-211"/>
<polyline fill="none" stroke="black" points="505.5,-211 505.5,-365 "/>
<path fill="none" stroke="black" d="M505.5,-365C505.5,-371 499.5,-377 493.5,-377"/>
<polyline fill="none" stroke="black" points="493.5,-377 352.5,-377 "/>
<path fill="none" stroke="black" d="M352.5,-377C346.5,-377 340.5,-371 340.5,-365"/>
<polyline fill="none" stroke="black" points="340.5,-365 340.5,-211 "/>
<path fill="none" stroke="black" d="M340.5,-211C340.5,-205 346.5,-199 352.5,-199"/>
<text text-anchor="middle" x="423" y="-360.4" font-family="Times Roman,serif" font-size="14.00">ShareUser</text>
<polyline fill="none" stroke="black" points="340.5,-351 505.5,-351 "/>
<text text-anchor="start" x="348.5" y="-334.4" font-family="Times Roman,serif" font-size="14.00">id :integer</text>
<text text-anchor="start" x="348.5" y="-316.4" font-family="Times Roman,serif" font-size="14.00">driver :integer</text>
<text text-anchor="start" x="348.5" y="-298.4" font-family="Times Roman,serif" font-size="14.00">created_at :datetime</text>
<text text-anchor="start" x="348.5" y="-280.4" font-family="Times Roman,serif" font-size="14.00">updated_at :datetime</text>
<text text-anchor="start" x="348.5" y="-262.4" font-family="Times Roman,serif" font-size="14.00">vehicle_id :integer</text>
<text text-anchor="start" x="348.5" y="-244.4" font-family="Times Roman,serif" font-size="14.00">lat :decimal</text>
<text text-anchor="start" x="348.5" y="-226.4" font-family="Times Roman,serif" font-size="14.00">long :decimal</text>
<text text-anchor="start" x="348.5" y="-208.4" font-family="Times Roman,serif" font-size="14.00">is_active :integer</text>
</g>
<!-- Stop -->
<g id="node3" class="node"><title>Stop</title>
<polyline fill="none" stroke="black" points="279.5,-595 420.5,-595 "/>
<path fill="none" stroke="black" d="M420.5,-595C426.5,-595 432.5,-601 432.5,-607"/>
<polyline fill="none" stroke="black" points="432.5,-607 432.5,-725 "/>
<path fill="none" stroke="black" d="M432.5,-725C432.5,-731 426.5,-737 420.5,-737"/>
<polyline fill="none" stroke="black" points="420.5,-737 279.5,-737 "/>
<path fill="none" stroke="black" d="M279.5,-737C273.5,-737 267.5,-731 267.5,-725"/>
<polyline fill="none" stroke="black" points="267.5,-725 267.5,-607 "/>
<path fill="none" stroke="black" d="M267.5,-607C267.5,-601 273.5,-595 279.5,-595"/>
<text text-anchor="middle" x="350" y="-720.4" font-family="Times Roman,serif" font-size="14.00">Stop</text>
<polyline fill="none" stroke="black" points="267.5,-711 432.5,-711 "/>
<text text-anchor="start" x="275.5" y="-694.4" font-family="Times Roman,serif" font-size="14.00">id :integer</text>
<text text-anchor="start" x="275.5" y="-676.4" font-family="Times Roman,serif" font-size="14.00">name :string</text>
<text text-anchor="start" x="275.5" y="-658.4" font-family="Times Roman,serif" font-size="14.00">lat :decimal</text>
<text text-anchor="start" x="275.5" y="-640.4" font-family="Times Roman,serif" font-size="14.00">long :decimal</text>
<text text-anchor="start" x="275.5" y="-622.4" font-family="Times Roman,serif" font-size="14.00">created_at :datetime</text>
<text text-anchor="start" x="275.5" y="-604.4" font-family="Times Roman,serif" font-size="14.00">updated_at :datetime</text>
</g>
<!-- Vehicle -->
<g id="node4" class="node"><title>Vehicle</title>
<polyline fill="none" stroke="black" points="352.5,-415 493.5,-415 "/>
<path fill="none" stroke="black" d="M493.5,-415C499.5,-415 505.5,-421 505.5,-427"/>
<polyline fill="none" stroke="black" points="505.5,-427 505.5,-545 "/>
<path fill="none" stroke="black" d="M505.5,-545C505.5,-551 499.5,-557 493.5,-557"/>
<polyline fill="none" stroke="black" points="493.5,-557 352.5,-557 "/>
<path fill="none" stroke="black" d="M352.5,-557C346.5,-557 340.5,-551 340.5,-545"/>
<polyline fill="none" stroke="black" points="340.5,-545 340.5,-427 "/>
<path fill="none" stroke="black" d="M340.5,-427C340.5,-421 346.5,-415 352.5,-415"/>
<text text-anchor="middle" x="423" y="-540.4" font-family="Times Roman,serif" font-size="14.00">Vehicle</text>
<polyline fill="none" stroke="black" points="340.5,-531 505.5,-531 "/>
<text text-anchor="start" x="348.5" y="-514.4" font-family="Times Roman,serif" font-size="14.00">id :integer</text>
<text text-anchor="start" x="348.5" y="-496.4" font-family="Times Roman,serif" font-size="14.00">name :string</text>
<text text-anchor="start" x="348.5" y="-478.4" font-family="Times Roman,serif" font-size="14.00">plate_number :string</text>
<text text-anchor="start" x="348.5" y="-460.4" font-family="Times Roman,serif" font-size="14.00">type :string</text>
<text text-anchor="start" x="348.5" y="-442.4" font-family="Times Roman,serif" font-size="14.00">created_at :datetime</text>
<text text-anchor="start" x="348.5" y="-424.4" font-family="Times Roman,serif" font-size="14.00">updated_at :datetime</text>
</g>
<!-- Stop&#45;&gt;Vehicle -->
<g id="edge4" class="edge"><title>Stop&#45;&gt;Vehicle</title>
<path fill="none" stroke="#682711" d="M382.649,-585.495C385.158,-579.309 387.692,-573.062 390.201,-566.873"/>
<polygon fill="#682711" stroke="#682711" points="382.61,-585.592 374.681,-593.168 380.731,-590.226 378.852,-594.859 378.852,-594.859 378.852,-594.859 380.731,-590.226 383.022,-596.55 382.61,-585.592 382.61,-585.592"/>
<polygon fill="#682711" stroke="#682711" points="390.361,-566.48 398.289,-558.905 392.24,-561.847 394.119,-557.213 394.119,-557.213 394.119,-557.213 392.24,-561.847 389.949,-555.522 390.361,-566.48 390.361,-566.48"/>
</g>
<!-- VehicleStop -->
<g id="node5" class="node"><title>VehicleStop</title>
<polyline fill="none" stroke="black" points="170.5,-208 311.5,-208 "/>
<path fill="none" stroke="black" d="M311.5,-208C317.5,-208 323.5,-214 323.5,-220"/>
<polyline fill="none" stroke="black" points="323.5,-220 323.5,-356 "/>
<path fill="none" stroke="black" d="M323.5,-356C323.5,-362 317.5,-368 311.5,-368"/>
<polyline fill="none" stroke="black" points="311.5,-368 170.5,-368 "/>
<path fill="none" stroke="black" d="M170.5,-368C164.5,-368 158.5,-362 158.5,-356"/>
<polyline fill="none" stroke="black" points="158.5,-356 158.5,-220 "/>
<path fill="none" stroke="black" d="M158.5,-220C158.5,-214 164.5,-208 170.5,-208"/>
<text text-anchor="middle" x="241" y="-351.4" font-family="Times Roman,serif" font-size="14.00">VehicleStop</text>
<polyline fill="none" stroke="black" points="158.5,-342 323.5,-342 "/>
<text text-anchor="start" x="166.5" y="-325.4" font-family="Times Roman,serif" font-size="14.00">id :integer</text>
<text text-anchor="start" x="166.5" y="-307.4" font-family="Times Roman,serif" font-size="14.00">prev :datetime</text>
<text text-anchor="start" x="166.5" y="-289.4" font-family="Times Roman,serif" font-size="14.00">avg :datetime</text>
<text text-anchor="start" x="166.5" y="-271.4" font-family="Times Roman,serif" font-size="14.00">created_at :datetime</text>
<text text-anchor="start" x="166.5" y="-253.4" font-family="Times Roman,serif" font-size="14.00">updated_at :datetime</text>
<text text-anchor="start" x="166.5" y="-235.4" font-family="Times Roman,serif" font-size="14.00">vehicle_id :integer</text>
<text text-anchor="start" x="166.5" y="-217.4" font-family="Times Roman,serif" font-size="14.00">stop_id :integer</text>
</g>
<!-- Stop&#45;&gt;VehicleStop -->
<g id="edge2" class="edge"><title>Stop&#45;&gt;VehicleStop</title>
<path fill="none" stroke="#59c845" d="M327.28,-587.209C309.681,-526.178 285.287,-441.583 266.926,-377.909"/>
<ellipse fill="none" stroke="#59c845" cx="328.39" cy="-591.058" rx="4.00001" ry="4.00001"/>
<polygon fill="#59c845" stroke="#59c845" points="266.919,-377.883 268.472,-367.027 265.533,-373.079 264.148,-368.274 264.148,-368.274 264.148,-368.274 265.533,-373.079 259.824,-369.521 266.919,-377.883 266.919,-377.883"/>
</g>
<!-- Vehicle&#45;&gt;ShareUser -->
<g id="edge12" class="edge"><title>Vehicle&#45;&gt;ShareUser</title>
<path fill="none" stroke="#b3c443" d="M423,-406.715C423,-400.345 423,-393.862 423,-387.376"/>
<ellipse fill="none" stroke="#b3c443" cx="423" cy="-410.797" rx="4" ry="4"/>
<polygon fill="#b3c443" stroke="#b3c443" points="423,-387.199 427.5,-377.199 423,-382.199 423,-377.199 423,-377.199 423,-377.199 423,-382.199 418.5,-377.199 423,-387.199 423,-387.199"/>
</g>
<!-- Vehicle&#45;&gt;VehicleStop -->
<g id="edge10" class="edge"><title>Vehicle&#45;&gt;VehicleStop</title>
<path fill="none" stroke="#3d62e9" d="M351.987,-408.744C342.078,-397.964 331.837,-386.822 321.765,-375.865"/>
<ellipse fill="none" stroke="#3d62e9" cx="354.844" cy="-411.852" rx="4.00002" ry="4.00002"/>
<polygon fill="#3d62e9" stroke="#3d62e9" points="321.593,-375.678 318.139,-365.27 318.209,-371.997 314.825,-368.316 314.825,-368.316 314.825,-368.316 318.209,-371.997 311.512,-371.361 321.593,-375.678 321.593,-375.678"/>
</g>
<!-- QueryUser -->
<g id="node6" class="node"><title>QueryUser</title>
<polyline fill="none" stroke="black" points="534.5,-208 675.5,-208 "/>
<path fill="none" stroke="black" d="M675.5,-208C681.5,-208 687.5,-214 687.5,-220"/>
<polyline fill="none" stroke="black" points="687.5,-220 687.5,-356 "/>
<path fill="none" stroke="black" d="M687.5,-356C687.5,-362 681.5,-368 675.5,-368"/>
<polyline fill="none" stroke="black" points="675.5,-368 534.5,-368 "/>
<path fill="none" stroke="black" d="M534.5,-368C528.5,-368 522.5,-362 522.5,-356"/>
<polyline fill="none" stroke="black" points="522.5,-356 522.5,-220 "/>
<path fill="none" stroke="black" d="M522.5,-220C522.5,-214 528.5,-208 534.5,-208"/>
<text text-anchor="middle" x="605" y="-351.4" font-family="Times Roman,serif" font-size="14.00">QueryUser</text>
<polyline fill="none" stroke="black" points="522.5,-342 687.5,-342 "/>
<text text-anchor="start" x="530.5" y="-325.4" font-family="Times Roman,serif" font-size="14.00">id :integer</text>
<text text-anchor="start" x="530.5" y="-307.4" font-family="Times Roman,serif" font-size="14.00">name :string</text>
<text text-anchor="start" x="530.5" y="-289.4" font-family="Times Roman,serif" font-size="14.00">password :string</text>
<text text-anchor="start" x="530.5" y="-271.4" font-family="Times Roman,serif" font-size="14.00">email :string</text>
<text text-anchor="start" x="530.5" y="-253.4" font-family="Times Roman,serif" font-size="14.00">mobile :string</text>
<text text-anchor="start" x="530.5" y="-235.4" font-family="Times Roman,serif" font-size="14.00">created_at :datetime</text>
<text text-anchor="start" x="530.5" y="-217.4" font-family="Times Roman,serif" font-size="14.00">updated_at :datetime</text>
</g>
<!-- Vehicle&#45;&gt;QueryUser -->
<g id="edge8" class="edge"><title>Vehicle&#45;&gt;QueryUser</title>
<path fill="none" stroke="#9fa464" d="M495.334,-407.307C504.821,-396.986 514.59,-386.358 524.206,-375.897"/>
<polygon fill="#9fa464" stroke="#9fa464" points="495.216,-407.435 485.136,-411.752 491.833,-411.116 488.449,-414.797 488.449,-414.797 488.449,-414.797 491.833,-411.116 491.762,-417.843 495.216,-407.435 495.216,-407.435"/>
<polygon fill="#9fa464" stroke="#9fa464" points="524.407,-375.678 534.488,-371.361 527.791,-371.997 531.175,-368.316 531.175,-368.316 531.175,-368.316 527.791,-371.997 527.861,-365.27 524.407,-375.678 524.407,-375.678"/>
</g>
<!-- Reservation -->
<g id="node7" class="node"><title>Reservation</title>
<polyline fill="none" stroke="black" points="586,-1 734,-1 "/>
<path fill="none" stroke="black" d="M734,-1C740,-1 746,-7 746,-13"/>
<polyline fill="none" stroke="black" points="746,-13 746,-149 "/>
<path fill="none" stroke="black" d="M746,-149C746,-155 740,-161 734,-161"/>
<polyline fill="none" stroke="black" points="734,-161 586,-161 "/>
<path fill="none" stroke="black" d="M586,-161C580,-161 574,-155 574,-149"/>
<polyline fill="none" stroke="black" points="574,-149 574,-13 "/>
<path fill="none" stroke="black" d="M574,-13C574,-7 580,-1 586,-1"/>
<text text-anchor="middle" x="660" y="-144.4" font-family="Times Roman,serif" font-size="14.00">Reservation</text>
<polyline fill="none" stroke="black" points="574,-135 746,-135 "/>
<text text-anchor="start" x="582" y="-118.4" font-family="Times Roman,serif" font-size="14.00">id :integer</text>
<text text-anchor="start" x="582" y="-100.4" font-family="Times Roman,serif" font-size="14.00">passenger_stop :string</text>
<text text-anchor="start" x="582" y="-82.4" font-family="Times Roman,serif" font-size="14.00">is_alert :</text>
<text text-anchor="start" x="582" y="-64.4" font-family="Times Roman,serif" font-size="14.00">created_at :datetime</text>
<text text-anchor="start" x="582" y="-46.4" font-family="Times Roman,serif" font-size="14.00">updated_at :datetime</text>
<text text-anchor="start" x="582" y="-28.4" font-family="Times Roman,serif" font-size="14.00">query_user_id :integer</text>
<text text-anchor="start" x="582" y="-10.4" font-family="Times Roman,serif" font-size="14.00">vehicle_id :integer</text>
</g>
<!-- Vehicle&#45;&gt;Reservation -->
<g id="edge6" class="edge"><title>Vehicle&#45;&gt;Reservation</title>
<path fill="none" stroke="#9e8ea2" d="M513.718,-476.294C576.379,-464.331 655.467,-437.624 696,-378 737.107,-317.532 722.119,-233.757 700.298,-170.594"/>
<ellipse fill="none" stroke="#9e8ea2" cx="509.706" cy="-477.029" rx="4.00001" ry="4.00001"/>
<polygon fill="#9e8ea2" stroke="#9e8ea2" points="700.249,-170.454 701.129,-159.524 698.57,-165.745 696.891,-161.035 696.891,-161.035 696.891,-161.035 698.57,-165.745 692.652,-162.546 700.249,-170.454 700.249,-170.454"/>
</g>
<!-- QueryUser&#45;&gt;Reservation -->
<g id="edge14" class="edge"><title>QueryUser&#45;&gt;Reservation</title>
<path fill="none" stroke="#72b5e2" d="M628.384,-199.992C630.926,-190.425 633.516,-180.677 636.064,-171.085"/>
<ellipse fill="none" stroke="#72b5e2" cx="627.292" cy="-204.103" rx="4.00001" ry="4.00001"/>
<polygon fill="#72b5e2" stroke="#72b5e2" points="636.133,-170.825 643.051,-162.316 637.417,-165.992 638.701,-161.16 638.701,-161.16 638.701,-161.16 637.417,-165.992 634.352,-160.004 636.133,-170.825 636.133,-170.825"/>
</g>
</g>
</svg>
