<?xml version="1.0" encoding="UTF-8" standalone="no"?>
<!DOCTYPE svg PUBLIC "-//W3C//DTD SVG 1.1//EN"
 "http://www.w3.org/Graphics/SVG/1.1/DTD/svg11.dtd">
<!-- Generated by graphviz version 2.26.3 (20100126.1600)
 -->
<!-- Title: models_diagram Pages: 1 -->
<svg width="987pt" height="568pt"
 viewBox="0.00 0.00 987.00 568.00" xmlns="http://www.w3.org/2000/svg" xmlns:xlink="http://www.w3.org/1999/xlink">
<g id="graph1" class="graph" transform="scale(1 1) rotate(0) translate(4 564)">
<title>models_diagram</title>
<polygon fill="white" stroke="white" points="-4,5 -4,-564 984,-564 984,5 -4,5"/>
<!-- _diagram_info -->
<g id="node1" class="node"><title>_diagram_info</title>
<text text-anchor="start" x="8" y="-518.8" font-family="Times Roman,serif" font-size="13.00">Models diagram</text>
<text text-anchor="start" x="8" y="-501.8" font-family="Times Roman,serif" font-size="13.00">Date: May 10 2015 &#45; 13:24</text>
<text text-anchor="start" x="8" y="-484.8" font-family="Times Roman,serif" font-size="13.00">Migration version: 20150510101931</text>
<text text-anchor="start" x="8" y="-467.8" font-family="Times Roman,serif" font-size="13.00">Generated by RailRoady 1.3.0</text>
<text text-anchor="start" x="8" y="-450.8" font-family="Times Roman,serif" font-size="13.00">http://railroady.prestonlee.com</text>
</g>
<!-- ShareUser -->
<g id="node2" class="node"><title>ShareUser</title>
<polyline fill="none" stroke="black" points="279.5,-426 420.5,-426 "/>
<path fill="none" stroke="black" d="M420.5,-426C426.5,-426 432.5,-432 432.5,-438"/>
<polyline fill="none" stroke="black" points="432.5,-438 432.5,-538 "/>
<path fill="none" stroke="black" d="M432.5,-538C432.5,-544 426.5,-550 420.5,-550"/>
<polyline fill="none" stroke="black" points="420.5,-550 279.5,-550 "/>
<path fill="none" stroke="black" d="M279.5,-550C273.5,-550 267.5,-544 267.5,-538"/>
<polyline fill="none" stroke="black" points="267.5,-538 267.5,-438 "/>
<path fill="none" stroke="black" d="M267.5,-438C267.5,-432 273.5,-426 279.5,-426"/>
<text text-anchor="middle" x="350" y="-533.4" font-family="Times Roman,serif" font-size="14.00">ShareUser</text>
<polyline fill="none" stroke="black" points="267.5,-524 432.5,-524 "/>
<text text-anchor="start" x="275.5" y="-507.4" font-family="Times Roman,serif" font-size="14.00">id :integer</text>
<text text-anchor="start" x="275.5" y="-489.4" font-family="Times Roman,serif" font-size="14.00">driver :integer</text>
<text text-anchor="start" x="275.5" y="-471.4" font-family="Times Roman,serif" font-size="14.00">created_at :datetime</text>
<text text-anchor="start" x="275.5" y="-453.4" font-family="Times Roman,serif" font-size="14.00">updated_at :datetime</text>
<text text-anchor="start" x="275.5" y="-435.4" font-family="Times Roman,serif" font-size="14.00">vehicle_id :integer</text>
</g>
<!-- Stop -->
<g id="node3" class="node"><title>Stop</title>
<polyline fill="none" stroke="black" points="461.5,-417 602.5,-417 "/>
<path fill="none" stroke="black" d="M602.5,-417C608.5,-417 614.5,-423 614.5,-429"/>
<polyline fill="none" stroke="black" points="614.5,-429 614.5,-547 "/>
<path fill="none" stroke="black" d="M614.5,-547C614.5,-553 608.5,-559 602.5,-559"/>
<polyline fill="none" stroke="black" points="602.5,-559 461.5,-559 "/>
<path fill="none" stroke="black" d="M461.5,-559C455.5,-559 449.5,-553 449.5,-547"/>
<polyline fill="none" stroke="black" points="449.5,-547 449.5,-429 "/>
<path fill="none" stroke="black" d="M449.5,-429C449.5,-423 455.5,-417 461.5,-417"/>
<text text-anchor="middle" x="532" y="-542.4" font-family="Times Roman,serif" font-size="14.00">Stop</text>
<polyline fill="none" stroke="black" points="449.5,-533 614.5,-533 "/>
<text text-anchor="start" x="457.5" y="-516.4" font-family="Times Roman,serif" font-size="14.00">id :integer</text>
<text text-anchor="start" x="457.5" y="-498.4" font-family="Times Roman,serif" font-size="14.00">name :string</text>
<text text-anchor="start" x="457.5" y="-480.4" font-family="Times Roman,serif" font-size="14.00">lat :decimal</text>
<text text-anchor="start" x="457.5" y="-462.4" font-family="Times Roman,serif" font-size="14.00">long :decimal</text>
<text text-anchor="start" x="457.5" y="-444.4" font-family="Times Roman,serif" font-size="14.00">created_at :datetime</text>
<text text-anchor="start" x="457.5" y="-426.4" font-family="Times Roman,serif" font-size="14.00">updated_at :datetime</text>
</g>
<!-- VehicleStop -->
<g id="node5" class="node"><title>VehicleStop</title>
<polyline fill="none" stroke="black" points="510.5,-219 651.5,-219 "/>
<path fill="none" stroke="black" d="M651.5,-219C657.5,-219 663.5,-225 663.5,-231"/>
<polyline fill="none" stroke="black" points="663.5,-231 663.5,-331 "/>
<path fill="none" stroke="black" d="M663.5,-331C663.5,-337 657.5,-343 651.5,-343"/>
<polyline fill="none" stroke="black" points="651.5,-343 510.5,-343 "/>
<path fill="none" stroke="black" d="M510.5,-343C504.5,-343 498.5,-337 498.5,-331"/>
<polyline fill="none" stroke="black" points="498.5,-331 498.5,-231 "/>
<path fill="none" stroke="black" d="M498.5,-231C498.5,-225 504.5,-219 510.5,-219"/>
<text text-anchor="middle" x="581" y="-326.4" font-family="Times Roman,serif" font-size="14.00">VehicleStop</text>
<polyline fill="none" stroke="black" points="498.5,-317 663.5,-317 "/>
<text text-anchor="start" x="506.5" y="-300.4" font-family="Times Roman,serif" font-size="14.00">id :integer</text>
<text text-anchor="start" x="506.5" y="-282.4" font-family="Times Roman,serif" font-size="14.00">prev :datetime</text>
<text text-anchor="start" x="506.5" y="-264.4" font-family="Times Roman,serif" font-size="14.00">avg :datetime</text>
<text text-anchor="start" x="506.5" y="-246.4" font-family="Times Roman,serif" font-size="14.00">created_at :datetime</text>
<text text-anchor="start" x="506.5" y="-228.4" font-family="Times Roman,serif" font-size="14.00">updated_at :datetime</text>
</g>
<!-- Stop&#45;&gt;VehicleStop -->
<g id="edge2" class="edge"><title>Stop&#45;&gt;VehicleStop</title>
<path fill="none" stroke="#8b5632" d="M550.745,-408.811C555.097,-390.427 559.706,-370.957 563.979,-352.906"/>
<ellipse fill="none" stroke="#8b5632" cx="549.784" cy="-412.87" rx="4.00001" ry="4.00001"/>
<polygon fill="#8b5632" stroke="#8b5632" points="564.011,-352.77 570.693,-344.075 565.163,-347.904 566.314,-343.039 566.314,-343.039 566.314,-343.039 565.163,-347.904 561.935,-342.002 564.011,-352.77 564.011,-352.77"/>
</g>
<!-- Vehicles -->
<g id="node10" class="node"><title>Vehicles</title>
<ellipse fill="none" stroke="black" cx="430" cy="-281" rx="50.9117" ry="18.3848"/>
<text text-anchor="middle" x="430" y="-277.4" font-family="Times Roman,serif" font-size="14.00">Vehicles</text>
</g>
<!-- Stop&#45;&gt;Vehicles -->
<g id="edge4" class="edge"><title>Stop&#45;&gt;Vehicles</title>
<path fill="none" stroke="#e7323b" d="M492.273,-407.377C475.036,-372.396 455.991,-333.746 443.557,-308.513"/>
<polygon fill="#e7323b" stroke="#e7323b" points="492.477,-407.792 492.861,-418.751 494.687,-412.277 496.897,-416.762 496.897,-416.762 496.897,-416.762 494.687,-412.277 500.934,-414.773 492.477,-407.792 492.477,-407.792"/>
<polygon fill="#e7323b" stroke="#e7323b" points="443.553,-308.505 443.17,-297.546 441.343,-304.02 439.133,-299.535 439.133,-299.535 439.133,-299.535 441.343,-304.02 435.097,-301.524 443.553,-308.505 443.553,-308.505"/>
<text text-anchor="middle" x="514.5" y="-385.4" font-family="Times Roman,serif" font-size="14.00">vehicles</text>
</g>
<!-- Vehicle -->
<g id="node4" class="node"><title>Vehicle</title>
<polyline fill="none" stroke="black" points="665.5,-417 806.5,-417 "/>
<path fill="none" stroke="black" d="M806.5,-417C812.5,-417 818.5,-423 818.5,-429"/>
<polyline fill="none" stroke="black" points="818.5,-429 818.5,-547 "/>
<path fill="none" stroke="black" d="M818.5,-547C818.5,-553 812.5,-559 806.5,-559"/>
<polyline fill="none" stroke="black" points="806.5,-559 665.5,-559 "/>
<path fill="none" stroke="black" d="M665.5,-559C659.5,-559 653.5,-553 653.5,-547"/>
<polyline fill="none" stroke="black" points="653.5,-547 653.5,-429 "/>
<path fill="none" stroke="black" d="M653.5,-429C653.5,-423 659.5,-417 665.5,-417"/>
<text text-anchor="middle" x="736" y="-542.4" font-family="Times Roman,serif" font-size="14.00">Vehicle</text>
<polyline fill="none" stroke="black" points="653.5,-533 818.5,-533 "/>
<text text-anchor="start" x="661.5" y="-516.4" font-family="Times Roman,serif" font-size="14.00">id :integer</text>
<text text-anchor="start" x="661.5" y="-498.4" font-family="Times Roman,serif" font-size="14.00">name :string</text>
<text text-anchor="start" x="661.5" y="-480.4" font-family="Times Roman,serif" font-size="14.00">plate_number :string</text>
<text text-anchor="start" x="661.5" y="-462.4" font-family="Times Roman,serif" font-size="14.00">type :string</text>
<text text-anchor="start" x="661.5" y="-444.4" font-family="Times Roman,serif" font-size="14.00">created_at :datetime</text>
<text text-anchor="start" x="661.5" y="-426.4" font-family="Times Roman,serif" font-size="14.00">updated_at :datetime</text>
</g>
<!-- Vehicle&#45;&gt;VehicleStop -->
<g id="edge10" class="edge"><title>Vehicle&#45;&gt;VehicleStop</title>
<path fill="none" stroke="#e9c2a4" d="M677.776,-410.243C663.233,-390.82 647.722,-370.107 633.476,-351.081"/>
<ellipse fill="none" stroke="#e9c2a4" cx="680.26" cy="-413.56" rx="4.00002" ry="4.00002"/>
<polygon fill="#e9c2a4" stroke="#e9c2a4" points="633.448,-351.044 631.056,-340.342 630.451,-347.041 627.454,-343.039 627.454,-343.039 627.454,-343.039 630.451,-347.041 623.852,-345.736 633.448,-351.044 633.448,-351.044"/>
</g>
<!-- QueryUser -->
<g id="node6" class="node"><title>QueryUser</title>
<polyline fill="none" stroke="black" points="826.5,-201 967.5,-201 "/>
<path fill="none" stroke="black" d="M967.5,-201C973.5,-201 979.5,-207 979.5,-213"/>
<polyline fill="none" stroke="black" points="979.5,-213 979.5,-349 "/>
<path fill="none" stroke="black" d="M979.5,-349C979.5,-355 973.5,-361 967.5,-361"/>
<polyline fill="none" stroke="black" points="967.5,-361 826.5,-361 "/>
<path fill="none" stroke="black" d="M826.5,-361C820.5,-361 814.5,-355 814.5,-349"/>
<polyline fill="none" stroke="black" points="814.5,-349 814.5,-213 "/>
<path fill="none" stroke="black" d="M814.5,-213C814.5,-207 820.5,-201 826.5,-201"/>
<text text-anchor="middle" x="897" y="-344.4" font-family="Times Roman,serif" font-size="14.00">QueryUser</text>
<polyline fill="none" stroke="black" points="814.5,-335 979.5,-335 "/>
<text text-anchor="start" x="822.5" y="-318.4" font-family="Times Roman,serif" font-size="14.00">id :integer</text>
<text text-anchor="start" x="822.5" y="-300.4" font-family="Times Roman,serif" font-size="14.00">name :string</text>
<text text-anchor="start" x="822.5" y="-282.4" font-family="Times Roman,serif" font-size="14.00">password :string</text>
<text text-anchor="start" x="822.5" y="-264.4" font-family="Times Roman,serif" font-size="14.00">email :string</text>
<text text-anchor="start" x="822.5" y="-246.4" font-family="Times Roman,serif" font-size="14.00">mobile :string</text>
<text text-anchor="start" x="822.5" y="-228.4" font-family="Times Roman,serif" font-size="14.00">created_at :datetime</text>
<text text-anchor="start" x="822.5" y="-210.4" font-family="Times Roman,serif" font-size="14.00">updated_at :datetime</text>
</g>
<!-- Vehicle&#45;&gt;QueryUser -->
<g id="edge8" class="edge"><title>Vehicle&#45;&gt;QueryUser</title>
<path fill="none" stroke="#3565d7" d="M797.672,-408.708C807.689,-395.828 818.118,-382.419 828.291,-369.34"/>
<polygon fill="#3565d7" stroke="#3565d7" points="797.547,-408.869 787.855,-414 794.477,-412.816 791.407,-416.762 791.407,-416.762 791.407,-416.762 794.477,-412.816 794.959,-419.525 797.547,-408.869 797.547,-408.869"/>
<polygon fill="#3565d7" stroke="#3565d7" points="828.446,-369.14 838.138,-364.01 831.516,-365.194 834.586,-361.247 834.586,-361.247 834.586,-361.247 831.516,-365.194 831.034,-358.484 828.446,-369.14 828.446,-369.14"/>
</g>
<!-- Reservation -->
<g id="node7" class="node"><title>Reservation</title>
<polyline fill="none" stroke="black" points="674,-1 822,-1 "/>
<path fill="none" stroke="black" d="M822,-1C828,-1 834,-7 834,-13"/>
<polyline fill="none" stroke="black" points="834,-13 834,-149 "/>
<path fill="none" stroke="black" d="M834,-149C834,-155 828,-161 822,-161"/>
<polyline fill="none" stroke="black" points="822,-161 674,-161 "/>
<path fill="none" stroke="black" d="M674,-161C668,-161 662,-155 662,-149"/>
<polyline fill="none" stroke="black" points="662,-149 662,-13 "/>
<path fill="none" stroke="black" d="M662,-13C662,-7 668,-1 674,-1"/>
<text text-anchor="middle" x="748" y="-144.4" font-family="Times Roman,serif" font-size="14.00">Reservation</text>
<polyline fill="none" stroke="black" points="662,-135 834,-135 "/>
<text text-anchor="start" x="670" y="-118.4" font-family="Times Roman,serif" font-size="14.00">id :integer</text>
<text text-anchor="start" x="670" y="-100.4" font-family="Times Roman,serif" font-size="14.00">passenger_stop :string</text>
<text text-anchor="start" x="670" y="-82.4" font-family="Times Roman,serif" font-size="14.00">is_alert :</text>
<text text-anchor="start" x="670" y="-64.4" font-family="Times Roman,serif" font-size="14.00">created_at :datetime</text>
<text text-anchor="start" x="670" y="-46.4" font-family="Times Roman,serif" font-size="14.00">updated_at :datetime</text>
<text text-anchor="start" x="670" y="-28.4" font-family="Times Roman,serif" font-size="14.00">query_user_id :integer</text>
<text text-anchor="start" x="670" y="-10.4" font-family="Times Roman,serif" font-size="14.00">vehicle_id :integer</text>
</g>
<!-- Vehicle&#45;&gt;Reservation -->
<g id="edge6" class="edge"><title>Vehicle&#45;&gt;Reservation</title>
<path fill="none" stroke="#28047e" d="M717.096,-408.766C714.142,-393.342 711.555,-377.232 710,-362 702.687,-290.372 698.917,-271.142 710,-200 711.49,-190.437 713.615,-180.593 716.108,-170.855"/>
<ellipse fill="none" stroke="#28047e" cx="717.898" cy="-412.837" rx="4.00001" ry="4.00001"/>
<polygon fill="#28047e" stroke="#28047e" points="716.117,-170.823 723.06,-162.336 717.416,-165.995 718.715,-161.167 718.715,-161.167 718.715,-161.167 717.416,-165.995 714.37,-159.997 716.117,-170.823 716.117,-170.823"/>
</g>
<!-- Stops -->
<g id="node15" class="node"><title>Stops</title>
<ellipse fill="none" stroke="black" cx="758" cy="-281" rx="38.8909" ry="18.3848"/>
<text text-anchor="middle" x="758" y="-277.4" font-family="Times Roman,serif" font-size="14.00">Stops</text>
</g>
<!-- Vehicle&#45;&gt;Stops -->
<g id="edge12" class="edge"><title>Vehicle&#45;&gt;Stops</title>
<path fill="none" stroke="#dd48a4" d="M744.648,-406.627C748.283,-372.43 752.277,-334.852 754.94,-309.788"/>
<polygon fill="#dd48a4" stroke="#dd48a4" points="744.628,-406.818 739.096,-416.287 744.1,-411.79 743.571,-416.762 743.571,-416.762 743.571,-416.762 744.1,-411.79 748.046,-417.238 744.628,-406.818 744.628,-406.818"/>
<polygon fill="#dd48a4" stroke="#dd48a4" points="754.973,-309.479 760.505,-300.011 755.502,-304.507 756.03,-299.535 756.03,-299.535 756.03,-299.535 755.502,-304.507 751.555,-299.059 754.973,-309.479 754.973,-309.479"/>
<text text-anchor="middle" x="765.5" y="-385.4" font-family="Times Roman,serif" font-size="14.00">stops</text>
</g>
<!-- QueryUser&#45;&gt;Reservation -->
<g id="edge14" class="edge"><title>QueryUser&#45;&gt;Reservation</title>
<path fill="none" stroke="#278cc8" d="M832.448,-194.352C826.296,-186.096 820.053,-177.716 813.89,-169.442"/>
<ellipse fill="none" stroke="#278cc8" cx="834.865" cy="-197.597" rx="4.00002" ry="4.00002"/>
<polygon fill="#278cc8" stroke="#278cc8" points="813.733,-169.232 811.368,-158.525 810.746,-165.223 807.759,-161.213 807.759,-161.213 807.759,-161.213 810.746,-165.223 804.15,-163.902 813.733,-169.232 813.733,-169.232"/>
</g>
</g>
</svg>
